<svg id="Layer_1" data-name="Layer 1" xmlns="http://www.w3.org/2000/svg" viewBox="0 0 500 143.79"><defs><style>.cls-1{fill:#fff;}.cls-2{isolation:isolate;}.cls-3{fill:#00b1cd;}</style></defs><path class="cls-1" d="M-363.56,104.94V88.39H-347v16.55Zm19.57,0V88.39h16.54v16.55Zm0,19.56V108h16.54V124.5Zm0,19.42V127.38h16.54v16.54Zm0,19.57V146.94h16.54v16.55Zm0,19.56V166.51h16.54v16.54Zm19.42-78.11V88.39H-308v16.55Zm25.75-.15V88.25h16.55v16.54Zm0,19.42V107.67h16.55v16.54Zm0,19.57V127.24h16.55v16.54Zm0,19.56V146.8h16.55v16.54Zm0,19.43V166.22h16.55v16.55Zm19.57-78V88.25h16.54v16.54Zm0,39V127.24h16.54v16.54Zm0,39V166.22h16.54v16.55Zm19.42-78V88.25h16.54v16.54Zm0,39V127.24h16.54v16.54Zm0,39V166.22h16.54v16.55Zm19.56-78V88.25h16.55v16.54Zm0,78V166.22h16.55v16.55Zm27.19-77.83,16.55-16.55v16.55Zm0,19.56V108h16.55V124.5Zm0,19.42V127.38h16.55v16.54Zm0,19.57V146.94h16.55v16.55Zm16.55,19.56-16.55-16.54h16.55Zm2.87-78.11V88.39h16.55v16.55Zm0,78.11V166.51h16.55v16.54Zm19.57-78.11V88.39h16.54v16.55Zm0,78.11V166.51h16.54v16.54Zm19.57-94.66,16.4,16.55h-16.4Zm0,36.11V108h16.4V124.5Zm0,39V146.94h16.4v16.55Zm16.4,3-16.4,16.54V166.51Zm10.78-61.57V88.39h16.55v16.55Zm0,19.56V108h16.55V124.5Zm0,19.57V127.52h16.55v16.55Zm0,19.42V146.94h16.55v16.55Zm0,19.56V166.51h16.55v16.54Zm19.57-39V127.52h16.54v16.55Zm19.57,0V127.52h16.4v16.55Zm19.42-39.13V88.39h16.54v16.55Zm0,19.56V108h16.54V124.5Zm0,19.57V127.52h16.54v16.55Zm0,19.42V146.94h16.54v16.55Zm0,19.56V166.51h16.54v16.54Z" transform="translate(552.24 -83.29)"/><g id="Make_life_simple" data-name="Make life simple"><g class="cls-2"><path class="cls-3" d="M-363,205.82l-1-3.71h6.14l6.38,9.44.54,2.66h.14l.44-2,7.09-10.1h4.38v25h-5V212.88l1.69-6.54-.2-.07-2.38,5-4.82,7.14h-3.05l-4.75-7.24-2.17-5.38-.21.07,1.23,6.39v14.86H-363Z" transform="translate(552.24 -83.29)"/><path class="cls-3" d="M-334.31,222.84l7.16-20.73h6.32l7.5,20.56v4.4h-5v-4l-.47-1.3.68-1.22-.07-.07-1.12.59h-9.5l-1.12-.59-.07.07.81,1.47-.47,1.5v3.53h-4.62Zm7.54-5.38h5.5l2.17.94.06-.07-1.76-2.45-2.71-8-.48-3h-.17l-.48,3-2.68,8.11-1.69,2.34.07.07Z" transform="translate(552.24 -83.29)"/><path class="cls-3" d="M-308.86,202.11h5v25h-5Zm13.71,0h5.63l-7.56,10.66-3.4.91v.14l4.72,1.26,7,7.59v4.4h-5v-2.62l-9.6-10.59Z" transform="translate(552.24 -83.29)"/><path class="cls-3" d="M-284.26,223.37V205.82l-1-3.71h16.43v3.71h-10l-1.76-.95-.07.07,1.49,2.63v2.93l-1.49,2.62.07.07,1.8-.94h8.65V216h-8.69l-1.76-.94-.07.07,1.49,2.62v3.92l-1.49,2.62.07.07,1.8-.94h10.45v3.7h-16.87Z" transform="translate(552.24 -83.29)"/><path class="cls-3" d="M-254.71,223.4V202.11h5v19.51l-1.84,3,.07.07,2.1-1.29H-239v3.7h-16.7Z" transform="translate(552.24 -83.29)"/><path class="cls-3" d="M-235.16,202.11h5v25h-5Z" transform="translate(552.24 -83.29)"/><path class="cls-3" d="M-223.63,205.82l-1-3.71h16.43v3.71h-10.05l-1.76-.95-.07.07,1.49,2.63v3.28l-1.49,2.62.07.07,1.76-.94h8.62v3.7h-8.62l-1.76-.94-.07.07,1.49,2.62v9h-5Z" transform="translate(552.24 -83.29)"/><path class="cls-3" d="M-203.44,223.37V205.82l-1-3.71H-188v3.71h-10.05l-1.76-.95-.07.07,1.49,2.63v2.93l-1.49,2.62.07.07,1.8-.94h8.65V216h-8.69l-1.76-.94-.07.07,1.49,2.62v3.92l-1.49,2.62.07.07,1.8-.94h10.45v3.7h-16.87Z" transform="translate(552.24 -83.29)"/><path class="cls-3" d="M-175,223.4h11.4l1.76.95.07-.07-1.49-2.63V219l1.83-3-.07-.07-2.27,1.4-8.89-2.23a8.6,8.6,0,0,1-2.78-5.77,8.85,8.85,0,0,1,2.81-5.95l1.26-1.29h12.11v3.67h-10.69l-1.76-.94-.07.07,1.49,2.62V209l-1.83,3,.07.07,2.17-1.36,8.65,2.1a10.19,10.19,0,0,1,3.13,6.68A9.67,9.67,0,0,1-161,226l-1,1h-13Z" transform="translate(552.24 -83.29)"/><path class="cls-3" d="M-153.26,202.11h5v25h-5Z" transform="translate(552.24 -83.29)"/><path class="cls-3" d="M-141.72,205.82l-1-3.71h6.14l6.38,9.44.54,2.66h.14l.44-2,7.09-10.1h4.38v25h-5V212.88l1.7-6.54-.21-.07-2.37,5-4.82,7.14h-3.06l-4.75-7.24-2.17-5.38-.2.07,1.22,6.39v14.86h-4.41Z" transform="translate(552.24 -83.29)"/><path class="cls-3" d="M-111.12,205.82l-1-3.71h15.6l1.16,1.19a9.55,9.55,0,0,1,3,6.57,8.75,8.75,0,0,1-2.85,6.47l-1.29,1.36h-5.77l-3.6-3.7h7.74l1.77.94.06-.07-1.49-2.62v-4.68l1.49-2.63-.06-.07-1.77.95h-7.56l-2.11-1.3-.07.07,1.83,3v19.5h-5Z" transform="translate(552.24 -83.29)"/><path class="cls-3" d="M-87.94,223.4V202.11h5v19.51l-1.83,3,.06.07,2.11-1.29h10.32v3.7H-89Z" transform="translate(552.24 -83.29)"/><path class="cls-3" d="M-68.2,223.37V205.82l-1-3.71h16.42v3.71h-10l-1.77-.95-.07.07,1.5,2.63v2.93l-1.5,2.62.07.07,1.8-.94h8.65V216h-8.68L-64.6,215l-.07.07,1.5,2.62v3.92l-1.5,2.62.07.07,1.8-.94h10.45v3.7H-69.21Z" transform="translate(552.24 -83.29)"/></g></g><path class="cls-3" d="M-544.24,126.32l-8,11.08.41,1h17.63V158.1c0,8-.82,11.71-11.49,25.3l.61,1.2h27.48l11.73-7.9V138.45h15.79v34.07l12.36,12.12h1.17l14.58-9.82v-1.2l-9.38-7.17V104.14l2.18-16.93-1-.64-19.94,11.3v28.45h-15.74V87H-510v84.48h-8.63l-13.9,4.39-.41-.62c15.59-15.54,16-17.57,16-25.11V87.62l-1-.58-7.6.84L-536.42,87c-5.33,0-8.21,1-10.87,3.58a12.53,12.53,0,0,0-3.52,9.2,12.8,12.8,0,0,0,1.84,6.49h1.43a5.7,5.7,0,0,1,1.24-4.19c1.47-1.54,2.94-1.93,6.81-1.93h7.59l10-5.64.41.41c-12.35,16.94-12.76,18.21-12.76,29.89v1.47ZM-434,115.24l-.82-1.2a37.45,37.45,0,0,0-14.43,9.39,34.14,34.14,0,0,0-9.64,24c0,10.88,4.51,20.71,10.26,26.56,7,7.17,16.42,11.08,28.15,11.08,11.91,0,22-4.38,28.33-10.87,5.32-5.43,8.82-13.15,8.82-20.32l-1.44-.21c-2.87,5.86-8.41,10.88-15.59,13.81V104.8h.82c8.21,0,14.37-4.39,17-21.12l-1.41-.39c-3.52,5-5.73,6.07-13.33,6.07-11.08,0-23.8-2.73-31.8-2.73-10.68,0-17.44,2.51-21.76,6.91A17.59,17.59,0,0,0-456,106.23a26.33,26.33,0,0,0,1.64,8.57h1.84a12.23,12.23,0,0,1,3.31-7.73c3.08-3.14,7.39-5,18.06-5a123.79,123.79,0,0,1,16.42,1.67v.42l-14.54,8v49.14l-3.29,4.38h-.23a19.35,19.35,0,0,1-3.08-2.71c-4.7-4.78-8.41-13-8.41-23A34.7,34.7,0,0,1-434,115.22Zm20.1-5.86,5.34-5,4.1.21V169a35.34,35.34,0,0,1-10.67,1.46,32.29,32.29,0,0,1-14.18-2.93v-.38l15.39-8.53Z" transform="translate(552.24 -83.29)"/></svg>