<?xml version="1.0" encoding="UTF-8"?>
<svg width="18px" height="18px" viewBox="0 0 18 18" version="1.1" xmlns="http://www.w3.org/2000/svg" xmlns:xlink="http://www.w3.org/1999/xlink">
    <title>account</title>
    <g id="account" stroke="none" stroke-width="1" fill="none" fill-rule="evenodd">
        <g>
            <rect id="Rectangle" x="0" y="0" width="18" height="18"></rect>
            <path d="M9,1 C13.418278,1 17,4.581722 17,9 C17,13.418278 13.418278,17 9,17 C4.581722,17 1,13.418278 1,9 C1,4.581722 4.581722,1 9,1 Z M11,11 L7,11 C5.9456382,11 5.08183488,11.8158778 5.00548574,12.8507377 L5,13 L4.99967126,14.7450814 C6.13356694,15.5360955 7.51260812,16 9,16 C10.4878296,16 11.8672447,15.5358224 13.0013298,14.744383 L13,13 C13,11.9456382 12.1841222,11.0818349 11.1492623,11.0054857 L11,11 Z M9,2 C5.13400675,2 2,5.13400675 2,9 C2,10.9069832 2.76255555,12.635862 3.99937371,13.8983435 L4,13 C4,11.3431458 5.34314575,10 7,10 L11,10 C12.6568542,10 14,11.3431458 14,13 L14.0015996,13.8973499 C15.2378445,12.6349549 16,10.906483 16,9 C16,5.13400675 12.8659932,2 9,2 Z M9,3 C10.6568542,3 12,4.34314575 12,6 C12,7.65685425 10.6568542,9 9,9 C7.34314575,9 6,7.65685425 6,6 C6,4.34314575 7.34314575,3 9,3 Z M9,4 C7.8954305,4 7,4.8954305 7,6 C7,7.1045695 7.8954305,8 9,8 C10.1045695,8 11,7.1045695 11,6 C11,4.8954305 10.1045695,4 9,4 Z" id="Combined-Shape" fill="#424242" fill-rule="nonzero"></path>
        </g>
    </g>
</svg>