<?xml version="1.0" encoding="UTF-8"?>
<svg width="18px" height="18px" viewBox="0 0 18 18" version="1.1" xmlns="http://www.w3.org/2000/svg" xmlns:xlink="http://www.w3.org/1999/xlink">
    <title>checkbox</title>
    <g id="checkbox" stroke="none" stroke-width="1" fill="none" fill-rule="evenodd">
        <g id="Rectangle">
            <rect x="0" y="0" width="18" height="18"></rect>
            <path d="M15,1 C16.1045695,1 17,1.8954305 17,3 L17,15 C17,16.1045695 16.1045695,17 15,17 L3,17 C1.8954305,17 1,16.1045695 1,15 L1,3 C1,1.8954305 1.8954305,1 3,1 L15,1 Z M15,2 L3,2 C2.48716416,2 2.06449284,2.38604019 2.00672773,2.88337887 L2,3 L2,15 C2,15.5128358 2.38604019,15.9355072 2.88337887,15.9932723 L3,16 L15,16 C15.5128358,16 15.9355072,15.6139598 15.9932723,15.1166211 L16,15 L16,3 C16,2.48716416 15.6139598,2.06449284 15.1166211,2.00672773 L15,2 Z" fill="#9E9E9E" fill-rule="nonzero"></path>
        </g>
    </g>
</svg>