<?xml version="1.0" encoding="UTF-8"?>
<svg width="18px" height="18px" viewBox="0 0 18 18" version="1.1" xmlns="http://www.w3.org/2000/svg" xmlns:xlink="http://www.w3.org/1999/xlink">
    <title>Group 50</title>
    <g id="Group-50" stroke="none" stroke-width="1" fill="none" fill-rule="evenodd">
        <g id="Group-46">
            <rect id="Rectangle-Copy-10" x="0" y="0" width="18" height="18"></rect>
            <path d="M17,3 L17,4 L15,4 L15,15 C15,16.1045695 14.1045695,17 13,17 L5,17 C3.8954305,17 3,16.1045695 3,15 L3,4 L1,4 L1,3 L17,3 Z M14,4 L4,4 L4,15 C4,15.5128358 4.38604019,15.9355072 4.88337887,15.9932723 L5,16 L13,16 C13.5128358,16 13.9355072,15.6139598 13.9932723,15.1166211 L14,15 L14,4 Z M8,8 L8,13 L7,13 L7,8 L8,8 Z M11,8 L11,13 L10,13 L10,8 L11,8 Z M11,1 L11,2 L7,2 L7,1 L11,1 Z" id="Combined-Shape" fill="#9E9E9E" fill-rule="nonzero"></path>
        </g>
    </g>
</svg>