<svg id="SvgjsSvg1012" width="288" height="288" xmlns="http://www.w3.org/2000/svg" version="1.1" xmlns:xlink="http://www.w3.org/1999/xlink" xmlns:svgjs="http://svgjs.com/svgjs"><defs id="SvgjsDefs1013"></defs><g id="SvgjsG1014"><svg xmlns="http://www.w3.org/2000/svg" width="288" height="288" enable-background="new 0 0 48 48" viewBox="0 0 48 48"><path d="M23,48H7c-2.757,0-5-2.243-5-5V5c0-0.553,0.448-1,1-1s1,0.447,1,1v38c0,1.654,1.346,3,3,3h16c0.552,0,1,0.447,1,1     S23.552,48,23,48z" fill="#9e9e9e" class="color000 svgShape"></path><path d="M41 22.999c-.552 0-1-.447-1-1V10H7c-2.757 0-5-2.243-5-5s2.243-5 5-5h34c.552 0 1 .447 1 1s-.448 1-1 1H7C5.346 2 4 3.346 4 5s1.346 3 3 3h35v13.999C42 22.552 41.552 22.999 41 22.999zM34 48c-6.617 0-12-5.383-12-12s5.383-12 12-12 12 5.383 12 12S40.617 48 34 48zM34 26c-5.514 0-10 4.486-10 10s4.486 10 10 10 10-4.486 10-10S39.514 26 34 26z" fill="#9e9e9e" class="color000 svgShape"></path><path d="M34,42c-0.552,0-1-0.447-1-1V31c0-0.553,0.448-1,1-1s1,0.447,1,1v10C35,41.553,34.552,42,34,42z" fill="#9e9e9e" class="color000 svgShape"></path><path d="M34,42.414l-4.707-4.707c-0.391-0.391-0.391-1.023,0-1.414s1.023-0.391,1.414,0L34,39.586l3.293-3.293     c0.391-0.391,1.023-0.391,1.414,0s0.391,1.023,0,1.414L34,42.414z" fill="#9e9e9e" class="color000 svgShape"></path><rect width="33" height="2" x="7" y="4" fill="#9e9e9e" class="color000 svgShape"></rect></svg></g></svg>