<svg xmlns="http://www.w3.org/2000/svg" width="20" height="20" viewBox="0 0 20 20"><g><g><g><path fill="none" stroke="#bdbdbd" stroke-linecap="round" stroke-linejoin="round" stroke-miterlimit="20" stroke-width="1.5" d="M11.735 11.728a2.457 2.457 0 0 1-4.174-1.064 2.448 2.448 0 0 1 .704-2.4zm5.498.874c.678-.805 1.27-1.68 1.767-2.609 0 0-3.273-6.543-9-6.543a7.464 7.464 0 0 0-1.718.196zM5.14 5.137A15.085 15.085 0 0 0 1 9.992s3.273 6.539 9 6.539a8.244 8.244 0 0 0 4.86-1.684z"/></g><g><path fill="none" stroke="#bdbdbd" stroke-linecap="round" stroke-linejoin="round" stroke-miterlimit="20" stroke-width="1.5" d="M1 1l18 18"/></g></g></g></svg>