<svg id="SvgjsSvg1001" width="288" height="288" xmlns="http://www.w3.org/2000/svg" version="1.1" xmlns:xlink="http://www.w3.org/1999/xlink" xmlns:svgjs="http://svgjs.com/svgjs"><defs id="SvgjsDefs1002"></defs><g id="SvgjsG1008" transform="matrix(1,0,0,1,0,0)"><svg xmlns="http://www.w3.org/2000/svg" width="288" height="288" viewBox="0 0 48 48"><path fill="none" d="M0 0h48v48h-48z"></path><path d="M42.82 23.16l-17.99-17.99c-.73-.72-1.73-1.17-2.83-1.17h-14c-2.21 0-4 1.79-4 4v14c0 1.11.45 2.11 1.18 2.83l18 18c.72.72 1.72 1.17 2.82 1.17 1.1 0 2.11-.45 2.83-1.17l14-14c.72-.73 1.17-1.73 1.17-2.83 0-1.11-.45-2.11-1.18-2.84zm-31.82-9.16c-1.66 0-3-1.34-3-3s1.34-3 3-3 3 1.34 3 3-1.34 3-3 3z" fill="#9e9e9e" class="color000 svgShape"></path></svg></g></svg>