<svg id="SvgjsSvg1001" width="288" height="288" xmlns="http://www.w3.org/2000/svg" version="1.1" xmlns:xlink="http://www.w3.org/1999/xlink" xmlns:svgjs="http://svgjs.com/svgjs"><defs id="SvgjsDefs1002"></defs><g id="SvgjsG1008" transform="matrix(1,0,0,1,0,0)"><svg xmlns="http://www.w3.org/2000/svg" viewBox="0 0 96 96" width="288" height="288"><path d="M90,60a5.9966,5.9966,0,0,0-6,6V84H12V12H30A6,6,0,0,0,30,0H6A5.9966,5.9966,0,0,0,0,6V90a5.9966,5.9966,0,0,0,6,6H90a5.9966,5.9966,0,0,0,6-6V66A5.9966,5.9966,0,0,0,90,60Z" fill="#9e9e9e" class="color000 svgShape"></path><path d="M90,0H66a6,6,0,0,0,0,12h9.5156L37.7578,49.7578a5.9994,5.9994,0,1,0,8.4844,8.4844L84,20.4844V30a6,6,0,0,0,12,0V6A5.9966,5.9966,0,0,0,90,0Z" fill="#9e9e9e" class="color000 svgShape"></path></svg></g></svg>