<?xml version="1.0" encoding="UTF-8"?>
<svg width="18px" height="18px" viewBox="0 0 18 18" version="1.1" xmlns="http://www.w3.org/2000/svg" xmlns:xlink="http://www.w3.org/1999/xlink">
    <title>candidates</title>
    <g id="candidates" stroke="none" stroke-width="1" fill="none" fill-rule="evenodd">
        <g>
            <rect id="Rectangle" x="0" y="0" width="18" height="18"></rect>
            <path d="M12,10 C14.209139,10 16,11.790861 16,14 L16,17 L15,17 L15,14 C15,12.4023191 13.75108,11.0963391 12.1762728,11.0050927 L12,11 L6,11 C4.40231912,11 3.09633912,12.24892 3.00509269,13.8237272 L3,14 L3,17 L2,17 L2,14 C2,11.790861 3.790861,10 6,10 L12,10 Z M8.93811232,1 C11.1472513,1 12.9381123,2.790861 12.9381123,5 C12.9381123,7.209139 11.1472513,9 8.93811232,9 C6.72897332,9 4.93811232,7.209139 4.93811232,5 C4.93811232,2.790861 6.72897332,1 8.93811232,1 Z M8.93811232,2 C7.28125807,2 5.93811232,3.34314575 5.93811232,5 C5.93811232,6.65685425 7.28125807,8 8.93811232,8 C10.5949666,8 11.9381123,6.65685425 11.9381123,5 C11.9381123,3.34314575 10.5949666,2 8.93811232,2 Z" id="Combined-Shape" fill="#424242" fill-rule="nonzero"></path>
        </g>
    </g>
</svg>