<svg version="1.2" baseProfile="tiny-ps" xmlns="http://www.w3.org/2000/svg" viewBox="0 0 63 59" width="63" height="59">
	<title>ht-logo-svg</title>
	<style>
		tspan { white-space:pre }
		.shp0 { fill: #ffffff } 
		.shp1 { fill: #00b1cd } 
	</style>
	<g id="Group_31">
		<g id="Group_3117">
			<path id="Ellipse_350" class="shp0" d="M32 57.31C17.07 57.31 5 44.99 5 29.74C5 14.49 17.07 2.17 32 2.17C46.93 2.17 59 14.49 59 29.74C59 44.99 46.93 57.31 32 57.31Z" />
			<path id="Path_2466" fill-rule="evenodd" class="shp1" d="M61.66 29.49C61.67 31.41 61.5 33.33 61.14 35.22C60.79 37.11 60.24 38.96 59.53 40.74C58.81 42.53 57.92 44.24 56.87 45.85C55.82 47.46 54.61 48.96 53.27 50.34C50.42 53.09 47.06 55.26 43.39 56.75C39.71 58.23 35.79 58.99 31.83 58.99C27.86 58.99 23.94 58.23 20.26 56.75C16.59 55.26 13.23 53.09 10.38 50.34C7.71 47.56 5.61 44.3 4.17 40.73C2.73 37.16 2 33.34 2 29.49C2 25.64 2.73 21.83 4.17 18.25C5.61 14.68 7.71 11.42 10.38 8.64C13.23 5.89 16.59 3.72 20.26 2.24C23.94 0.75 27.86 -0.01 31.83 -0.01C35.79 -0.01 39.71 0.75 43.39 2.24C47.06 3.72 50.42 5.89 53.27 8.64C54.62 10.01 55.83 11.51 56.89 13.12C57.94 14.73 58.83 16.44 59.55 18.23C60.27 20.01 60.81 21.86 61.16 23.76C61.52 25.65 61.68 27.57 61.66 29.49M11.84 26.67L9.1 26.67L6.85 29.82L6.93 30.14L12.01 30.14L12.01 35.72C12.01 37.9 11.76 39.03 8.7 42.83L8.86 43.15L16.76 43.15L20.15 40.89L20.15 30.06L24.67 30.06L24.67 39.68L28.22 43.07L28.54 43.07L32.74 40.33L32.74 40L30 37.98L30 20.36L30.64 15.59L30.32 15.43L24.59 18.58L24.59 26.58L20.07 26.58L20.07 15.51L18.86 15.51L18.86 39.52L16.36 39.52L12.33 40.74L12.25 40.57C16.77 36.21 16.85 35.57 16.85 33.46L16.85 15.84L16.53 15.68L14.35 15.92L11.21 15.68C10.92 15.65 10.64 15.64 10.36 15.66C10.08 15.69 9.8 15.74 9.53 15.83C9.26 15.91 9 16.02 8.75 16.16C8.5 16.3 8.27 16.46 8.06 16.65C7.9 16.82 7.75 17.01 7.62 17.21C7.5 17.41 7.39 17.62 7.31 17.84C7.23 18.06 7.17 18.29 7.13 18.53C7.09 18.76 7.08 19 7.09 19.23C7.09 19.4 7.11 19.56 7.13 19.73C7.15 19.89 7.19 20.05 7.24 20.21C7.29 20.36 7.35 20.52 7.42 20.66C7.49 20.81 7.57 20.96 7.66 21.09L8.06 21.09C8.04 20.99 8.03 20.88 8.04 20.77C8.05 20.66 8.06 20.56 8.09 20.45C8.12 20.35 8.16 20.25 8.21 20.15C8.25 20.05 8.31 19.96 8.38 19.88C8.79 19.39 9.19 19.31 10.32 19.31L12.49 19.31L15.39 17.7L15.47 17.78C11.92 22.55 11.84 22.87 11.84 26.18L11.84 26.58L11.84 26.67ZM37.63 30.38C37.64 29.73 37.7 29.09 37.83 28.45C37.95 27.81 38.13 27.18 38.36 26.58C38.59 25.97 38.88 25.39 39.22 24.83C39.56 24.28 39.94 23.76 40.37 23.27L40.13 22.95C39.75 23.09 39.37 23.26 39 23.44C38.63 23.63 38.27 23.83 37.93 24.05C37.58 24.28 37.25 24.52 36.93 24.78C36.61 25.04 36.31 25.32 36.02 25.61C35.58 26.06 35.18 26.55 34.84 27.07C34.5 27.6 34.21 28.15 33.97 28.74C33.74 29.32 33.56 29.92 33.44 30.53C33.33 31.15 33.27 31.78 33.28 32.4C33.23 33.84 33.49 35.27 34.03 36.61C34.57 37.94 35.38 39.15 36.41 40.15C37.44 41.15 38.67 41.93 40.02 42.44C41.37 42.94 42.81 43.15 44.24 43.07C44.99 43.1 45.73 43.05 46.47 42.93C47.2 42.81 47.92 42.61 48.62 42.35C49.32 42.09 49.99 41.76 50.62 41.36C51.25 40.97 51.84 40.51 52.39 40C52.77 39.62 53.11 39.21 53.41 38.77C53.71 38.33 53.97 37.86 54.19 37.37C54.4 36.88 54.57 36.37 54.68 35.85C54.8 35.32 54.87 34.79 54.89 34.26L54.49 34.18C54.25 34.62 53.98 35.05 53.67 35.44C53.36 35.83 53.01 36.2 52.63 36.53C52.25 36.86 51.84 37.16 51.41 37.41C50.98 37.67 50.52 37.89 50.05 38.06L50.05 20.36L50.29 20.36C52.71 20.36 54.48 19.07 55.21 14.38L54.81 14.3C53.84 15.67 53.2 16 51.02 16C47.88 16 44.17 15.27 41.91 15.27C38.85 15.27 36.92 16 35.71 17.21C35.47 17.45 35.25 17.71 35.07 17.99C34.88 18.27 34.73 18.57 34.6 18.88C34.48 19.19 34.39 19.51 34.33 19.85C34.27 20.18 34.24 20.51 34.25 20.85C34.26 21.06 34.27 21.26 34.29 21.47C34.32 21.67 34.35 21.88 34.39 22.08C34.43 22.28 34.48 22.49 34.54 22.68C34.6 22.88 34.66 23.08 34.74 23.27L35.38 23.27C35.4 23.07 35.43 22.87 35.48 22.67C35.53 22.48 35.6 22.29 35.68 22.1C35.76 21.92 35.86 21.74 35.97 21.57C36.09 21.4 36.21 21.24 36.35 21.09C37.24 20.2 38.45 19.63 41.51 19.63C41.9 19.65 42.29 19.67 42.68 19.7C43.08 19.72 43.47 19.76 43.86 19.8C44.25 19.84 44.64 19.89 45.02 19.94C45.41 19.99 45.8 20.05 46.19 20.12L46.19 20.2L41.99 22.46L41.99 36.36L41.03 37.57L40.95 37.57C40.86 37.53 40.78 37.48 40.7 37.42C40.62 37.37 40.55 37.31 40.47 37.25C40.4 37.19 40.33 37.12 40.26 37.06C40.19 36.99 40.12 36.92 40.06 36.85C39.65 36.42 39.29 35.95 38.98 35.44C38.67 34.94 38.41 34.41 38.2 33.86C38 33.3 37.84 32.73 37.75 32.15C37.65 31.56 37.62 30.97 37.64 30.38L37.63 30.38ZM46.27 35.64L46.27 21.74L47.8 20.28L49.01 20.36L49.01 38.55C48.76 38.62 48.51 38.69 48.26 38.74C48.01 38.79 47.75 38.84 47.5 38.87C47.24 38.9 46.98 38.93 46.72 38.94C46.46 38.95 46.21 38.96 45.95 38.95C45.6 38.96 45.26 38.95 44.91 38.92C44.57 38.89 44.22 38.85 43.88 38.78C43.55 38.71 43.21 38.62 42.88 38.52C42.55 38.41 42.23 38.28 41.92 38.14L41.92 38.06L46.35 35.63L46.27 35.64Z" />
		</g>
		<path id="Path_2293" fill-rule="evenodd" class="shp0" d="M87.43 48.69L87.43 48.69C87.44 48.69 87.44 48.69 87.44 48.69M87.43 48.69C86.85 48.98 86.28 49.29 85.71 49.62C85.14 49.94 84.59 50.29 84.04 50.65C83.5 51.01 82.97 51.39 82.45 51.79C81.93 52.19 81.42 52.6 80.93 53.03L80.77 53.03C80.48 52.77 80.17 52.53 79.83 52.33C79.5 52.13 79.15 51.96 78.78 51.83C78.41 51.69 78.03 51.6 77.65 51.54C77.26 51.48 76.87 51.46 76.48 51.48C75.89 51.49 75.31 51.53 74.73 51.59C74.16 51.66 73.58 51.76 73.01 51.88C72.44 52.01 71.88 52.16 71.33 52.35C70.78 52.53 70.23 52.74 69.7 52.98L69.5 52.72C73.84 47.14 74.56 45.01 74.56 39.84L74.56 31.46L71.88 31.46C71.46 31.45 71.04 31.46 70.63 31.47C70.21 31.49 69.8 31.51 69.38 31.54C68.97 31.57 68.56 31.61 68.14 31.65C67.73 31.7 67.32 31.76 66.91 31.82L66.75 31.67C67.14 31.11 67.53 30.57 67.93 30.03C68.33 29.49 68.74 28.96 69.16 28.43C69.58 27.9 70.01 27.38 70.44 26.87C70.88 26.36 71.32 25.85 71.77 25.36C72 25.39 72.24 25.42 72.47 25.45C72.7 25.48 72.93 25.5 73.17 25.52C73.4 25.54 73.63 25.56 73.86 25.58C74.1 25.59 74.33 25.6 74.57 25.61L74.57 24.74C74.57 19.82 74.78 18.68 80.88 12.32L80.83 12.27C78.5 13.87 77.31 14.39 75.81 14.39C74.31 14.39 73.22 13.72 71.62 13.72C71.36 13.71 71.1 13.72 70.84 13.77C70.58 13.81 70.33 13.88 70.08 13.97C69.84 14.06 69.61 14.18 69.39 14.32C69.17 14.46 68.96 14.62 68.77 14.81C68.65 14.92 68.54 15.05 68.43 15.18C68.33 15.31 68.23 15.45 68.14 15.59C68.05 15.73 67.98 15.88 67.91 16.04C67.84 16.19 67.79 16.35 67.74 16.51L67.58 16.51C67.52 16.3 67.46 16.09 67.41 15.87C67.35 15.65 67.31 15.43 67.28 15.21C67.24 14.99 67.22 14.77 67.2 14.55C67.18 14.32 67.17 14.1 67.17 13.88C67.17 13.47 67.21 13.06 67.29 12.66C67.37 12.26 67.49 11.87 67.64 11.5C67.8 11.12 67.99 10.76 68.21 10.42C68.44 10.08 68.69 9.77 68.98 9.48C69.3 9.18 69.64 8.91 70.01 8.68C70.38 8.45 70.77 8.26 71.18 8.1C71.59 7.95 72.01 7.83 72.44 7.76C72.87 7.69 73.3 7.66 73.74 7.67C76.17 7.67 78.91 8.7 80.93 8.7C81.29 8.69 81.66 8.66 82.03 8.6C82.39 8.55 82.75 8.47 83.1 8.36C83.46 8.26 83.8 8.13 84.14 7.98C84.48 7.82 84.8 7.65 85.12 7.46L85.32 7.66C83.87 10.31 83.2 12.69 83.2 18.12L83.2 36.44C83.2 40.73 82.99 41.77 76.37 47.67L76.42 47.72C76.87 47.54 77.33 47.39 77.79 47.25C78.25 47.12 78.72 47 79.19 46.91C79.67 46.82 80.14 46.75 80.62 46.71C81.1 46.66 81.58 46.63 82.06 46.63C82.41 46.62 82.77 46.63 83.12 46.67C83.47 46.7 83.82 46.76 84.16 46.84C84.51 46.91 84.85 47.01 85.18 47.14C85.51 47.26 85.83 47.4 86.15 47.56L86.15 17.19C86.15 11.96 86.77 9.85 88.58 7.36L88.79 7.41C87.9 10.1 87.54 11.5 87.54 16.67L87.54 25.62L94.98 25.62L94.98 20.39C95 19.88 95 19.38 94.99 18.87C94.97 18.36 94.94 17.85 94.88 17.34C94.83 16.84 94.76 16.33 94.68 15.83C94.59 15.33 94.49 14.83 94.36 14.34C95.18 13.67 96.02 13.01 96.87 12.38C97.71 11.75 98.58 11.13 99.45 10.53C100.33 9.94 101.22 9.36 102.12 8.81C103.02 8.25 103.94 7.71 104.86 7.2L105.12 7.35C104.92 8.15 104.74 8.96 104.6 9.77C104.45 10.57 104.33 11.39 104.24 12.21C104.15 13.02 104.09 13.84 104.05 14.67C104.02 15.49 104.01 16.31 104.04 17.13L104.04 45.38C104.2 45.61 104.39 45.82 104.58 46.02C104.77 46.23 104.98 46.42 105.2 46.6C105.42 46.78 105.64 46.94 105.88 47.09C106.12 47.24 106.37 47.38 106.62 47.5C107.4 47.14 108.12 46.78 109 46.41L109.41 47.14C108.64 47.59 107.87 48.05 107.11 48.52C106.35 48.99 105.6 49.47 104.85 49.96C104.11 50.45 103.37 50.95 102.64 51.47C101.9 51.98 101.18 52.5 100.46 53.04L100.31 53.04C99.81 52.7 99.33 52.35 98.85 51.98C98.38 51.61 97.92 51.22 97.48 50.82C97.03 50.42 96.6 50 96.18 49.57C95.77 49.14 95.37 48.69 94.98 48.23L94.98 31.41L87.48 31.41L87.48 48.54L87.43 48.69ZM446.86 53.25L446.71 53.25C446.26 52.85 445.78 52.5 445.27 52.19C444.76 51.88 444.21 51.63 443.65 51.42C443.09 51.22 442.51 51.07 441.92 50.98C441.33 50.89 440.73 50.85 440.14 50.87C439.97 50.87 439.8 50.88 439.63 50.9C439.47 50.92 439.3 50.95 439.13 50.98C438.97 51.02 438.81 51.06 438.64 51.11C438.48 51.16 438.33 51.22 438.17 51.29C438.14 51.43 438.11 51.57 438.08 51.72C438.05 51.86 438.03 52.01 438.01 52.16C438 52.31 437.98 52.45 437.98 52.6C437.97 52.75 437.96 52.9 437.96 53.04C437.88 53.06 437.79 53.07 437.71 53.07C437.62 53.08 437.53 53.08 437.45 53.08C437.36 53.08 437.27 53.08 437.19 53.07C437.1 53.07 437.01 53.06 436.93 53.04C436.98 52.25 437.1 51.47 437.29 50.7C437.48 49.93 437.73 49.18 438.05 48.45C438.37 47.73 438.74 47.03 439.18 46.37C439.62 45.71 440.11 45.08 440.65 44.51C440.8 44.48 440.94 44.45 441.09 44.42C441.23 44.4 441.38 44.38 441.53 44.36C441.67 44.35 441.82 44.33 441.97 44.32C442.12 44.31 442.26 44.3 442.41 44.3C443.24 44.28 444.07 44.34 444.89 44.47C445.71 44.61 446.52 44.81 447.3 45.08C448.09 45.35 448.84 45.7 449.57 46.1C450.29 46.51 450.98 46.98 451.62 47.51L451.62 39.44L448.78 38.19L446.4 40.83L446.19 40.83L438.69 37.42L438.69 29.76C438.7 29.37 438.7 28.99 438.68 28.61C438.67 28.23 438.65 27.85 438.62 27.47C438.59 27.09 438.55 26.71 438.5 26.33C438.45 25.95 438.4 25.58 438.33 25.2C439.48 24.92 440.63 24.58 441.76 24.2C442.89 23.82 444 23.39 445.09 22.92C446.18 22.44 447.25 21.92 448.3 21.35C449.35 20.78 450.37 20.17 451.36 19.51L451.52 19.51C451.88 19.88 452.28 20.21 452.7 20.5C453.13 20.79 453.58 21.03 454.05 21.24C454.53 21.44 455.02 21.6 455.52 21.71C456.02 21.82 456.54 21.88 457.05 21.89C457.22 21.89 457.39 21.88 457.56 21.86C457.72 21.84 457.89 21.82 458.05 21.78C458.22 21.75 458.38 21.7 458.54 21.65C458.7 21.6 458.86 21.54 459.02 21.48C459.05 21.33 459.08 21.19 459.11 21.04C459.13 20.9 459.16 20.75 459.17 20.6C459.19 20.46 459.2 20.31 459.21 20.16C459.22 20.01 459.22 19.87 459.22 19.72C459.31 19.71 459.39 19.7 459.48 19.69C459.57 19.68 459.65 19.68 459.74 19.68C459.83 19.68 459.91 19.68 460 19.69C460.09 19.7 460.17 19.71 460.26 19.72C460.2 20.5 460.08 21.28 459.9 22.05C459.71 22.82 459.45 23.56 459.14 24.29C458.82 25.01 458.44 25.7 458.01 26.36C457.57 27.01 457.08 27.63 456.53 28.2C456.39 28.23 456.24 28.26 456.1 28.29C455.95 28.31 455.81 28.33 455.66 28.35C455.51 28.36 455.37 28.38 455.22 28.39C455.07 28.4 454.92 28.41 454.78 28.41C454.01 28.41 453.24 28.34 452.49 28.19C451.74 28.03 451 27.81 450.3 27.5C449.59 27.2 448.92 26.83 448.29 26.39C447.66 25.95 447.08 25.45 446.55 24.89L446.55 33.02L448.98 34.1L451.31 31.52L451.52 31.52L459.54 35.03L459.54 43.41C459.53 43.72 459.53 44.03 459.54 44.35C459.56 44.66 459.58 44.97 459.61 45.28C459.64 45.59 459.68 45.9 459.73 46.21C459.77 46.52 459.83 46.83 459.9 47.13C458.74 47.45 457.59 47.82 456.46 48.23C455.33 48.65 454.22 49.11 453.13 49.61C452.04 50.12 450.97 50.67 449.92 51.27C448.88 51.87 447.86 52.5 446.87 53.19L446.86 53.25ZM221.8 53.25L221.7 53.25C221.29 52.87 220.84 52.53 220.36 52.23C219.88 51.93 219.38 51.68 218.85 51.48C218.33 51.27 217.78 51.12 217.23 51.02C216.67 50.92 216.11 50.87 215.55 50.87C215.38 50.87 215.21 50.88 215.04 50.9C214.88 50.92 214.71 50.95 214.55 50.98C214.38 51.01 214.22 51.06 214.06 51.11C213.9 51.16 213.74 51.22 213.58 51.28C213.55 51.43 213.52 51.57 213.49 51.72C213.47 51.86 213.44 52.01 213.43 52.16C213.41 52.3 213.4 52.45 213.39 52.6C213.38 52.75 213.38 52.9 213.38 53.04C213.29 53.06 213.2 53.07 213.12 53.07C213.03 53.08 212.95 53.08 212.86 53.08C212.77 53.08 212.69 53.08 212.6 53.07C212.51 53.07 212.43 53.06 212.34 53.04C212.39 52.25 212.52 51.47 212.7 50.7C212.89 49.93 213.14 49.18 213.46 48.45C213.78 47.72 214.16 47.03 214.59 46.37C215.03 45.71 215.52 45.08 216.07 44.51C216.21 44.48 216.36 44.45 216.5 44.42C216.65 44.4 216.79 44.38 216.94 44.36C217.09 44.35 217.24 44.33 217.38 44.32C217.53 44.31 217.68 44.3 217.83 44.3C218.62 44.3 219.42 44.36 220.2 44.5C220.99 44.64 221.76 44.84 222.51 45.12C223.26 45.39 223.98 45.73 224.67 46.13C225.36 46.53 226.01 46.99 226.62 47.51L226.62 39.44L223.78 38.19L221.4 40.83L221.19 40.83L213.69 37.42L213.69 29.76C213.7 29.37 213.7 28.99 213.68 28.61C213.67 28.23 213.65 27.85 213.62 27.47C213.59 27.09 213.55 26.71 213.5 26.33C213.45 25.95 213.4 25.58 213.33 25.2C214.48 24.92 215.63 24.58 216.76 24.2C217.89 23.82 219 23.39 220.09 22.92C221.18 22.44 222.25 21.92 223.3 21.35C224.35 20.78 225.37 20.17 226.36 19.51L226.47 19.51C226.83 19.88 227.23 20.21 227.65 20.5C228.08 20.79 228.53 21.04 229 21.24C229.48 21.44 229.97 21.6 230.47 21.71C230.97 21.82 231.49 21.88 232 21.89C232.17 21.89 232.34 21.88 232.51 21.86C232.67 21.84 232.84 21.82 233 21.78C233.17 21.75 233.33 21.7 233.49 21.65C233.65 21.6 233.81 21.54 233.97 21.48C234 21.33 234.03 21.19 234.06 21.04C234.08 20.9 234.11 20.75 234.12 20.6C234.14 20.46 234.15 20.31 234.16 20.16C234.17 20.01 234.17 19.87 234.17 19.72C234.26 19.71 234.35 19.7 234.43 19.69C234.52 19.68 234.6 19.68 234.69 19.68C234.78 19.68 234.86 19.68 234.95 19.69C235.04 19.7 235.12 19.71 235.21 19.72C235.16 20.5 235.03 21.28 234.85 22.05C234.66 22.82 234.41 23.56 234.09 24.29C233.77 25.01 233.39 25.7 232.96 26.36C232.52 27.01 232.03 27.63 231.49 28.2C231.34 28.23 231.2 28.26 231.05 28.29C230.9 28.31 230.76 28.33 230.61 28.35C230.46 28.36 230.32 28.38 230.17 28.39C230.02 28.4 229.87 28.41 229.73 28.41C228.96 28.41 228.19 28.34 227.44 28.19C226.69 28.03 225.95 27.81 225.25 27.5C224.54 27.2 223.87 26.83 223.24 26.39C222.61 25.95 222.03 25.45 221.5 24.89L221.5 33.02L223.93 34.1L226.26 31.52L226.47 31.52L234.48 35.03L234.48 43.41C234.48 43.72 234.48 44.03 234.49 44.35C234.5 44.66 234.52 44.97 234.55 45.28C234.58 45.59 234.62 45.9 234.67 46.21C234.72 46.52 234.78 46.83 234.85 47.13C233.69 47.45 232.54 47.82 231.41 48.23C230.28 48.65 229.17 49.11 228.08 49.61C226.98 50.12 225.91 50.67 224.87 51.27C223.82 51.87 222.8 52.5 221.81 53.19L221.8 53.25ZM139.68 47.81C138.97 48.2 138.26 48.61 137.57 49.02C136.87 49.44 136.17 49.86 135.49 50.3C134.8 50.73 134.12 51.18 133.45 51.64C132.78 52.09 132.11 52.56 131.46 53.04L131.3 53.04C130.76 52.68 130.23 52.31 129.72 51.92C129.2 51.53 128.7 51.12 128.21 50.69C127.72 50.27 127.25 49.83 126.79 49.38C126.33 48.92 125.89 48.45 125.46 47.97L125.46 47.81C125.61 47.71 125.75 47.61 125.9 47.51C126.04 47.4 126.19 47.3 126.33 47.19C126.47 47.08 126.61 46.97 126.75 46.86C126.89 46.75 127.03 46.63 127.17 46.52L127.17 27.02C127.01 26.82 126.84 26.62 126.67 26.43C126.5 26.23 126.33 26.04 126.15 25.86C125.98 25.67 125.8 25.49 125.61 25.31C125.43 25.14 125.24 24.96 125.04 24.79C124.85 24.9 124.66 25 124.48 25.11C124.29 25.21 124.1 25.32 123.91 25.44C123.73 25.55 123.55 25.66 123.36 25.78C123.18 25.89 123 26.01 122.82 26.13L122.3 25.51C122.95 24.95 123.62 24.4 124.3 23.87C124.99 23.34 125.69 22.83 126.4 22.34C127.11 21.85 127.84 21.39 128.58 20.94C129.32 20.49 130.07 20.07 130.84 19.67L130.99 19.67C131.46 20.02 131.92 20.4 132.35 20.79C132.79 21.19 133.21 21.6 133.61 22.04C134.01 22.47 134.38 22.92 134.74 23.39C135.1 23.86 135.44 24.34 135.75 24.84C136.38 24.3 137.03 23.78 137.71 23.3C138.38 22.81 139.07 22.34 139.78 21.91C140.49 21.48 141.22 21.07 141.96 20.7C142.7 20.32 143.46 19.98 144.23 19.67L144.39 19.67C144.95 19.98 145.49 20.33 146 20.72C146.51 21.11 146.99 21.54 147.44 22C147.89 22.46 148.31 22.95 148.69 23.47C149.07 23.99 149.41 24.53 149.71 25.1L149.71 46.32C149.85 46.48 150 46.63 150.16 46.77C150.31 46.92 150.47 47.05 150.64 47.18C150.81 47.3 150.99 47.42 151.17 47.53C151.35 47.63 151.54 47.73 151.73 47.82C151.9 47.76 152.07 47.69 152.24 47.62C152.41 47.55 152.58 47.48 152.75 47.41C152.92 47.33 153.09 47.26 153.25 47.18C153.42 47.1 153.58 47.02 153.75 46.94L154.16 47.61C153.48 48.02 152.8 48.45 152.12 48.88C151.45 49.31 150.78 49.75 150.12 50.21C149.46 50.66 148.81 51.12 148.16 51.6C147.52 52.07 146.88 52.55 146.25 53.04L146.09 53.04C145.63 52.74 145.17 52.41 144.73 52.07C144.29 51.73 143.86 51.37 143.45 51C143.03 50.63 142.63 50.24 142.24 49.84C141.86 49.44 141.48 49.02 141.13 48.6L141.13 27.18C140.96 26.94 140.78 26.71 140.6 26.49C140.41 26.28 140.21 26.07 140 25.87C139.79 25.67 139.57 25.48 139.35 25.3C139.12 25.12 138.89 24.95 138.64 24.8C137.66 25.21 136.62 25.67 135.74 26.14L135.74 47.14C135.84 47.23 135.94 47.31 136.05 47.4C136.15 47.48 136.25 47.56 136.36 47.64C136.47 47.72 136.58 47.79 136.69 47.86C136.81 47.93 136.92 48 137.04 48.07C137.76 47.76 138.43 47.5 139.26 47.14L139.68 47.81L139.68 47.81ZM385.68 48.18C385.02 48.54 384.36 48.92 383.71 49.31C383.07 49.7 382.43 50.1 381.79 50.51C381.16 50.92 380.53 51.34 379.91 51.77C379.29 52.2 378.68 52.64 378.08 53.09L377.92 53.09C377.38 52.73 376.85 52.36 376.34 51.97C375.82 51.58 375.32 51.17 374.83 50.75C374.34 50.32 373.87 49.88 373.41 49.43C372.95 48.97 372.51 48.5 372.08 48.02L372.08 47.86C372.65 47.45 373.17 47.04 373.79 46.57L373.79 27.07C373.63 26.87 373.46 26.67 373.3 26.48C373.13 26.29 372.95 26.1 372.78 25.91C372.6 25.73 372.42 25.54 372.23 25.37C372.05 25.19 371.86 25.02 371.67 24.85C370.94 25.26 370.11 25.72 369.44 26.19L368.93 25.57C369.58 25 370.24 24.45 370.93 23.92C371.61 23.39 372.31 22.88 373.02 22.4C373.74 21.91 374.46 21.44 375.2 21C375.94 20.55 376.7 20.13 377.46 19.73L377.62 19.73C378.09 20.08 378.54 20.46 378.98 20.85C379.41 21.25 379.83 21.66 380.23 22.1C380.63 22.53 381.01 22.98 381.37 23.45C381.72 23.92 382.06 24.4 382.37 24.9C383 24.36 383.66 23.84 384.33 23.35C385 22.86 385.69 22.4 386.4 21.97C387.11 21.54 387.84 21.13 388.58 20.76C389.33 20.38 390.09 20.04 390.86 19.73L391.01 19.73C391.56 20.02 392.09 20.35 392.59 20.73C393.1 21.1 393.57 21.51 394.01 21.95C394.45 22.39 394.86 22.87 395.23 23.37C395.61 23.87 395.94 24.4 396.24 24.95C396.88 24.41 397.54 23.89 398.22 23.4C398.91 22.9 399.61 22.44 400.33 22C401.05 21.56 401.78 21.15 402.53 20.77C403.29 20.39 404.05 20.04 404.83 19.72L404.99 19.72C405.55 20.03 406.08 20.39 406.6 20.78C407.11 21.17 407.59 21.59 408.04 22.05C408.49 22.51 408.91 23 409.29 23.52C409.67 24.04 410.01 24.59 410.31 25.15L410.31 46.38C410.45 46.54 410.6 46.69 410.75 46.83C410.91 46.97 411.07 47.11 411.24 47.23C411.41 47.36 411.59 47.48 411.77 47.58C411.95 47.69 412.14 47.79 412.33 47.88C412.5 47.81 412.67 47.75 412.84 47.68C413.01 47.61 413.18 47.54 413.35 47.46C413.52 47.39 413.68 47.32 413.85 47.24C414.02 47.16 414.18 47.08 414.35 47L414.76 47.67C411.66 49.58 409.53 51.08 406.85 53.1L406.69 53.1C406.23 52.79 405.77 52.47 405.33 52.13C404.89 51.79 404.46 51.43 404.05 51.06C403.63 50.68 403.23 50.3 402.84 49.9C402.45 49.5 402.08 49.08 401.72 48.65L401.72 27.23C401.56 27 401.38 26.77 401.19 26.55C401 26.33 400.81 26.12 400.6 25.92C400.39 25.72 400.17 25.53 399.94 25.36C399.72 25.18 399.48 25.01 399.24 24.85C398.26 25.26 397.22 25.73 396.34 26.19L396.34 46.37C396.49 46.54 396.65 46.71 396.82 46.86C396.98 47.02 397.16 47.17 397.33 47.31C397.51 47.45 397.7 47.59 397.88 47.72C398.07 47.85 398.27 47.97 398.47 48.08L399.91 47.46L400.33 48.13C399.69 48.5 399.05 48.89 398.42 49.29C397.79 49.68 397.17 50.09 396.55 50.5C395.94 50.91 395.32 51.34 394.72 51.77C394.12 52.2 393.52 52.65 392.93 53.1L392.77 53.1C392.31 52.79 391.85 52.46 391.41 52.12C390.97 51.78 390.54 51.42 390.13 51.05C389.71 50.68 389.31 50.29 388.92 49.89C388.54 49.49 388.16 49.07 387.81 48.65L387.81 27.22C387.64 26.99 387.46 26.76 387.28 26.54C387.09 26.32 386.89 26.11 386.68 25.91C386.47 25.71 386.25 25.53 386.03 25.35C385.8 25.17 385.57 25 385.32 24.84C384.34 25.25 383.3 25.72 382.42 26.19L382.42 47.19C382.53 47.29 382.63 47.37 382.74 47.46C382.84 47.54 382.95 47.63 383.06 47.7C383.18 47.78 383.29 47.85 383.41 47.93C383.52 48 383.64 48.06 383.76 48.13C384.23 47.92 384.75 47.71 385.26 47.5L385.68 48.17L385.68 48.18ZM296.56 47.81C295.84 48.2 295.14 48.6 294.44 49.02C293.74 49.43 293.04 49.85 292.36 50.29C291.67 50.73 290.99 51.17 290.32 51.63C289.65 52.09 288.99 52.56 288.33 53.04L288.18 53.04C287.64 52.68 287.11 52.31 286.59 51.92C286.08 51.53 285.58 51.12 285.09 50.69C284.6 50.27 284.12 49.83 283.66 49.38C283.21 48.92 282.76 48.45 282.33 47.97L282.33 47.81C282.48 47.71 282.63 47.61 282.77 47.51C282.92 47.4 283.06 47.3 283.21 47.19C283.35 47.08 283.49 46.97 283.63 46.86C283.77 46.75 283.9 46.63 284.04 46.52L284.04 27.02C283.88 26.82 283.72 26.62 283.55 26.43C283.38 26.23 283.21 26.04 283.03 25.86C282.85 25.67 282.67 25.49 282.49 25.31C282.3 25.14 282.11 24.96 281.92 24.79C281.73 24.9 281.54 25 281.35 25.11C281.16 25.21 280.98 25.32 280.79 25.44C280.6 25.55 280.42 25.66 280.24 25.78C280.06 25.89 279.87 26.01 279.7 26.13L279.18 25.51C279.83 24.95 280.5 24.4 281.18 23.87C281.86 23.34 282.56 22.83 283.27 22.34C283.99 21.85 284.71 21.39 285.45 20.94C286.19 20.49 286.95 20.07 287.71 19.67L287.87 19.67C288.34 20.02 288.8 20.4 289.23 20.79C289.67 21.19 290.09 21.6 290.49 22.04C290.88 22.47 291.26 22.92 291.62 23.39C291.98 23.86 292.31 24.34 292.63 24.84C293.26 24.3 293.91 23.78 294.58 23.3C295.26 22.81 295.95 22.34 296.66 21.91C297.37 21.48 298.1 21.07 298.84 20.7C299.58 20.32 300.34 19.98 301.11 19.67L301.27 19.67C301.83 19.98 302.37 20.33 302.88 20.72C303.39 21.11 303.87 21.54 304.32 22C304.77 22.46 305.19 22.95 305.57 23.47C305.95 23.99 306.29 24.53 306.59 25.1L306.59 46.32C306.73 46.48 306.88 46.63 307.04 46.78C307.19 46.92 307.35 47.05 307.52 47.18C307.69 47.3 307.87 47.42 308.05 47.53C308.23 47.64 308.42 47.73 308.61 47.82C308.78 47.76 308.95 47.69 309.12 47.62C309.29 47.55 309.46 47.48 309.63 47.41C309.8 47.34 309.97 47.26 310.13 47.18C310.3 47.11 310.46 47.03 310.63 46.94L311.04 47.61C310.36 48.03 309.68 48.45 309 48.88C308.33 49.31 307.66 49.76 307 50.21C306.34 50.66 305.69 51.12 305.04 51.6C304.4 52.07 303.76 52.55 303.13 53.05L302.97 53.05C302.51 52.74 302.05 52.41 301.61 52.07C301.17 51.73 300.74 51.37 300.33 51C299.91 50.63 299.51 50.24 299.12 49.84C298.74 49.44 298.36 49.03 298.01 48.6L298.01 27.18C297.84 26.94 297.66 26.71 297.48 26.5C297.29 26.28 297.09 26.07 296.88 25.87C296.67 25.67 296.45 25.48 296.23 25.3C296 25.12 295.77 24.95 295.52 24.8C294.54 25.21 293.5 25.67 292.62 26.14L292.62 47.14C292.72 47.23 292.82 47.32 292.93 47.4C293.03 47.48 293.13 47.56 293.24 47.64C293.35 47.72 293.46 47.79 293.57 47.87C293.69 47.94 293.8 48.01 293.92 48.07C294.64 47.76 295.31 47.5 296.14 47.14L296.56 47.81L296.56 47.81ZM371.45 47.61L371.45 47.6C371.45 47.6 371.45 47.6 371.45 47.6L371.45 47.61ZM371.45 47.6C370.73 48.02 370.02 48.44 369.32 48.87C368.61 49.31 367.91 49.75 367.22 50.2C366.52 50.66 365.83 51.12 365.15 51.59C364.47 52.06 363.79 52.54 363.13 53.03L362.97 53.03C362.38 52.67 361.8 52.28 361.23 51.87C360.67 51.46 360.12 51.03 359.59 50.57C359.07 50.12 358.56 49.64 358.07 49.15C357.58 48.65 357.11 48.13 356.66 47.6L356.66 47.44C356.81 47.34 356.96 47.23 357.1 47.13C357.25 47.02 357.39 46.91 357.53 46.8C357.68 46.69 357.82 46.57 357.96 46.46C358.09 46.34 358.23 46.22 358.37 46.1L358.37 27.01C358.21 26.81 358.04 26.62 357.88 26.42C357.71 26.23 357.53 26.04 357.36 25.85C357.18 25.67 357 25.49 356.81 25.31C356.63 25.13 356.44 24.96 356.25 24.79C356.06 24.89 355.87 24.99 355.68 25.1C355.49 25.21 355.3 25.32 355.12 25.43C354.93 25.54 354.75 25.66 354.57 25.77C354.38 25.89 354.2 26.01 354.02 26.13L353.51 25.51C354.16 24.94 354.83 24.39 355.51 23.86C356.19 23.34 356.89 22.83 357.6 22.34C358.32 21.85 359.04 21.38 359.78 20.94C360.52 20.49 361.28 20.07 362.04 19.67L362.2 19.67C362.67 20.02 363.13 20.39 363.57 20.79C364.01 21.19 364.43 21.61 364.83 22.05C365.23 22.48 365.61 22.94 365.96 23.42C366.32 23.89 366.65 24.39 366.95 24.89L366.95 46.73C367.09 46.85 367.22 46.97 367.36 47.08C367.5 47.19 367.65 47.3 367.8 47.4C367.94 47.51 368.09 47.61 368.25 47.7C368.4 47.8 368.55 47.89 368.71 47.98C369.44 47.61 370.16 47.3 371.04 46.94L371.45 47.6ZM124.78 47.61L124.77 47.6C124.77 47.6 124.77 47.6 124.78 47.6L124.78 47.61ZM124.77 47.6C121.46 49.57 119.29 51.02 116.45 53.04L116.29 53.04C115.7 52.67 115.12 52.28 114.55 51.87C113.99 51.46 113.44 51.03 112.91 50.58C112.39 50.12 111.88 49.65 111.39 49.15C110.9 48.65 110.43 48.14 109.98 47.6L109.98 47.45C110.13 47.34 110.28 47.24 110.42 47.13C110.57 47.02 110.71 46.91 110.85 46.8C111 46.69 111.14 46.58 111.28 46.46C111.42 46.34 111.55 46.23 111.69 46.11L111.69 27.02C111.53 26.82 111.36 26.62 111.2 26.43C111.03 26.23 110.85 26.04 110.68 25.86C110.5 25.67 110.32 25.49 110.13 25.31C109.95 25.13 109.76 24.96 109.57 24.79C109.38 24.89 109.19 25 109 25.11C108.81 25.21 108.62 25.32 108.44 25.43C108.25 25.55 108.07 25.66 107.89 25.78C107.7 25.89 107.52 26.01 107.34 26.13L106.83 25.51C107.48 24.94 108.15 24.4 108.83 23.87C109.51 23.34 110.21 22.83 110.92 22.34C111.64 21.85 112.36 21.39 113.1 20.94C113.84 20.5 114.6 20.07 115.36 19.67L115.52 19.67C115.99 20.02 116.45 20.4 116.89 20.8C117.33 21.19 117.75 21.61 118.15 22.05C118.55 22.49 118.93 22.95 119.28 23.42C119.64 23.9 119.97 24.39 120.28 24.9L120.28 46.73C120.41 46.85 120.55 46.96 120.69 47.07C120.83 47.19 120.97 47.3 121.12 47.4C121.26 47.5 121.41 47.6 121.57 47.7C121.72 47.79 121.88 47.88 122.03 47.97C122.76 47.61 123.48 47.3 124.36 46.94L124.77 47.6ZM248.76 10.56L248.76 10.56C248.76 10.56 248.76 10.56 248.76 10.56L248.76 10.56ZM248.76 10.56C248.66 11.37 248.57 12.19 248.49 13C248.41 13.81 248.35 14.63 248.3 15.44C248.25 16.26 248.21 17.07 248.18 17.89C248.15 18.71 248.14 19.52 248.14 20.34L251.04 20.34C251.55 20.35 252.06 20.34 252.57 20.33C253.08 20.32 253.59 20.3 254.1 20.27C254.6 20.24 255.11 20.2 255.62 20.15C256.13 20.1 256.63 20.04 257.14 19.98L257.29 20.13C256.88 21.32 255.79 23.14 253.31 26.39C252.91 26.35 252.51 26.32 252.11 26.29C251.71 26.27 251.31 26.24 250.91 26.23C250.51 26.21 250.11 26.2 249.71 26.19C249.3 26.18 248.9 26.18 248.5 26.19L248.14 26.19L248.14 45.8C248.45 46.03 248.76 46.25 249.07 46.46C249.39 46.68 249.71 46.89 250.03 47.09C250.36 47.29 250.68 47.49 251.01 47.68C251.35 47.87 251.68 48.05 252.02 48.23C252.17 48.15 252.31 48.08 252.46 48.01C252.61 47.93 252.76 47.86 252.91 47.79C253.06 47.73 253.21 47.66 253.37 47.59C253.52 47.53 253.67 47.47 253.83 47.4L254.24 48.07C253.52 48.45 252.8 48.85 252.09 49.25C251.39 49.66 250.69 50.08 250 50.52C249.31 50.95 248.63 51.4 247.95 51.87C247.28 52.33 246.62 52.81 245.97 53.3L245.81 53.3C245.08 52.87 244.37 52.41 243.67 51.93C242.97 51.45 242.29 50.95 241.63 50.42C240.97 49.89 240.33 49.34 239.7 48.77C239.08 48.2 238.48 47.6 237.9 46.99L237.9 46.83C238.52 46.41 238.99 46.05 239.61 45.59L239.61 26.14L236.97 26.14L236.81 25.93C237.08 25.51 237.33 25.08 237.58 24.65C237.83 24.22 238.07 23.78 238.3 23.34C238.54 22.9 238.76 22.46 238.98 22.01C239.19 21.56 239.4 21.11 239.6 20.65C239.6 20.32 239.6 19.99 239.59 19.65C239.58 19.32 239.56 18.99 239.54 18.66C239.52 18.32 239.49 17.99 239.46 17.66C239.43 17.33 239.39 17 239.35 16.67C241.57 14.96 244.62 12.84 248.5 10.41L248.76 10.56ZM273.23 53.03C272.78 52.67 272.35 52.3 271.93 51.91C271.51 51.51 271.11 51.11 270.72 50.68C270.34 50.26 269.97 49.82 269.62 49.36C269.27 48.91 268.94 48.44 268.63 47.96C266.04 49.62 263.4 51.38 260.97 53.14L260.81 53.14C260.27 52.84 259.75 52.51 259.25 52.16C258.75 51.8 258.26 51.42 257.8 51.01C257.34 50.6 256.9 50.17 256.49 49.71C256.08 49.25 255.69 48.77 255.33 48.27L255.33 43.12C255.33 42.68 255.33 42.25 255.31 41.82C255.3 41.39 255.27 40.96 255.24 40.52C255.21 40.09 255.18 39.66 255.13 39.23C255.08 38.8 255.03 38.37 254.97 37.95C255.64 37.72 256.31 37.48 256.97 37.24C257.63 36.99 258.29 36.73 258.95 36.47C259.6 36.2 260.26 35.92 260.9 35.63C261.55 35.34 262.19 35.05 262.83 34.74C262.05 34.53 261.3 34.26 260.56 33.94C259.82 33.62 259.11 33.24 258.43 32.81C257.76 32.39 257.11 31.91 256.5 31.38C255.9 30.85 255.33 30.28 254.81 29.67L254.81 29.46C255.87 28.79 256.91 28.08 257.91 27.33C258.92 26.58 259.9 25.79 260.85 24.97C261.79 24.14 262.71 23.29 263.59 22.39C264.48 21.5 265.33 20.58 266.14 19.62L266.3 19.62C268.52 21.22 274.01 23.4 277.47 24.22C277.37 24.7 277.29 25.17 277.23 25.65C277.16 26.12 277.11 26.6 277.08 27.08C277.04 27.56 277.02 28.04 277.02 28.53C277.02 29.01 277.03 29.49 277.06 29.97L277.06 46.11C277.19 46.26 277.33 46.41 277.48 46.55C277.62 46.69 277.77 46.83 277.92 46.96C278.07 47.09 278.22 47.22 278.38 47.35C278.54 47.47 278.7 47.59 278.87 47.71C279.64 47.35 280.37 46.99 281.19 46.62L281.61 47.29C279.07 48.9 276.07 51.07 273.38 53.04L273.23 53.04L273.23 53.03ZM453.22 48.85L453.38 48.8L453.38 38.52L449.91 37.02L449.29 37.69L452.34 39.03L452.34 47.98L453.22 48.85ZM228.17 48.85L228.32 48.8L228.32 38.52L224.86 37.02L224.24 37.69L227.29 39.03L227.29 47.98L228.17 48.85ZM274.31 51.49C273.92 51.16 273.54 50.83 273.17 50.48C272.79 50.14 272.43 49.78 272.08 49.41C271.73 49.04 271.39 48.67 271.07 48.28C270.74 47.89 270.42 47.49 270.12 47.09L270.12 27.48C269.48 27.35 268.85 27.18 268.22 26.99C267.6 26.8 266.98 26.58 266.38 26.33C265.78 26.07 265.19 25.79 264.61 25.48C264.04 25.18 263.47 24.84 262.93 24.48L262.21 25.2C262.73 25.56 263.27 25.88 263.82 26.18C264.38 26.48 264.95 26.76 265.53 27C266.11 27.24 266.7 27.46 267.31 27.64C267.91 27.83 268.52 27.98 269.14 28.1L269.14 47.5C269.42 47.94 269.72 48.37 270.04 48.78C270.35 49.2 270.69 49.6 271.03 49.99C271.38 50.38 271.74 50.75 272.11 51.12C272.49 51.48 272.88 51.83 273.28 52.16L274.31 51.49L274.31 51.49ZM87.53 30.8L94.98 30.8L94.98 29.92L87.53 29.92L87.53 30.8ZM67.77 31.06L67.77 31.06C67.77 31.06 67.77 31.06 67.77 31.06L67.77 31.06ZM67.77 31.06C68.12 31.01 68.46 30.96 68.81 30.93C69.16 30.89 69.51 30.86 69.86 30.84C70.21 30.82 70.56 30.8 70.91 30.8C71.26 30.79 71.61 30.79 71.96 30.8L74.44 30.8L74.44 29.92L68.7 29.92L67.77 31.06ZM174.74 53.03C174.28 52.66 173.82 52.28 173.39 51.87C172.95 51.47 172.53 51.04 172.14 50.6C171.74 50.16 171.36 49.7 171 49.22C170.64 48.75 170.3 48.26 169.99 47.76C167.35 49.41 164.61 51.22 162.18 52.98L162.02 52.98C161.44 52.65 160.88 52.29 160.34 51.9C159.79 51.51 159.27 51.09 158.78 50.64C158.28 50.2 157.81 49.72 157.37 49.22C156.92 48.72 156.51 48.2 156.12 47.66L156.12 32.76C156.13 32.19 156.14 31.62 156.13 31.05C156.13 30.48 156.12 29.91 156.09 29.34C156.07 28.77 156.04 28.2 156 27.63C155.97 27.06 155.92 26.49 155.86 25.93C158.6 24.79 161.5 23.5 164.09 22.2C163.54 21.86 162.99 21.52 162.43 21.2C161.87 20.87 161.31 20.56 160.74 20.25C160.17 19.94 159.59 19.65 159.01 19.36C158.43 19.07 157.85 18.8 157.26 18.53C157.06 17.62 156.89 16.7 156.74 15.78C156.6 14.85 156.48 13.93 156.38 13C156.29 12.07 156.22 11.14 156.17 10.21C156.13 9.27 156.11 8.34 156.12 7.41L156.38 7.36C158.76 10.04 163.16 13.05 178.83 22.72C178.73 24.12 178.57 25.88 178.57 29.45L178.57 46.11C178.7 46.27 178.84 46.42 178.99 46.57C179.13 46.72 179.28 46.87 179.43 47.01C179.58 47.15 179.73 47.29 179.89 47.43C180.05 47.56 180.21 47.69 180.38 47.82C181.15 47.45 181.88 47.09 182.71 46.73L183.12 47.4C180.59 49.06 177.59 51.07 174.9 53.04L174.74 53.04L174.74 53.03ZM256.56 29.71C256.56 29.71 256.56 29.71 256.56 29.71C256.56 29.71 256.56 29.71 256.56 29.71L256.56 29.71ZM256.56 29.71C259.36 32.55 263.19 34.26 268.51 34.73L268.51 28.57C267.91 28.45 267.32 28.3 266.73 28.12C266.15 27.94 265.57 27.73 265.01 27.49C264.44 27.25 263.89 26.98 263.35 26.69C262.82 26.39 262.29 26.07 261.79 25.73C260.08 27.12 258.37 28.46 256.56 29.71ZM423.81 40.15C424.34 40.8 424.88 41.44 425.44 42.07C426 42.7 426.58 43.31 427.17 43.91C427.76 44.51 428.37 45.1 428.99 45.67C429.61 46.24 430.24 46.8 430.89 47.34C432.5 46.61 434.1 45.79 436.07 44.85L436.69 45.79C435.64 46.34 434.6 46.9 433.57 47.48C432.53 48.06 431.51 48.65 430.49 49.25C429.47 49.86 428.46 50.47 427.46 51.1C426.46 51.73 425.46 52.37 424.48 53.03L424.22 53.03C423.42 52.35 422.63 51.66 421.87 50.95C421.1 50.23 420.35 49.5 419.62 48.75C418.89 48 418.18 47.23 417.49 46.44C416.8 45.65 416.13 44.85 415.48 44.03L415.48 31.2C415.48 30.63 415.48 30.05 415.47 29.48C415.46 28.91 415.43 28.34 415.4 27.77C415.36 27.2 415.32 26.64 415.26 26.07C415.21 25.5 415.14 24.93 415.06 24.37C416.26 24.06 417.45 23.73 418.63 23.38C419.82 23.03 420.99 22.65 422.16 22.26C423.33 21.86 424.49 21.44 425.65 21C426.8 20.56 427.94 20.09 429.08 19.61L429.24 19.61C429.8 20.63 430.38 21.64 430.97 22.64C431.57 23.65 432.18 24.64 432.8 25.62C433.43 26.61 434.07 27.58 434.73 28.55C435.38 29.51 436.05 30.46 436.74 31.41L436.74 31.62L423.8 38.55L423.8 40.15L423.81 40.15ZM440.46 36.43L440.46 25.31L439.21 25.67C439.24 25.97 439.27 26.26 439.3 26.56C439.32 26.86 439.35 27.15 439.36 27.45C439.38 27.75 439.39 28.05 439.4 28.34C439.41 28.64 439.42 28.94 439.42 29.24L439.42 36.95L446.24 40.15L446.91 39.43L440.46 36.43ZM215.4 36.43L215.4 25.31L214.16 25.67C214.19 25.97 214.22 26.26 214.24 26.56C214.27 26.86 214.29 27.15 214.31 27.45C214.33 27.75 214.34 28.05 214.35 28.34C214.36 28.64 214.36 28.94 214.36 29.24L214.36 36.95L221.19 40.15L221.86 39.43L215.4 36.43ZM325.42 32.13C325.39 33.1 325.46 34.07 325.63 35.02C325.8 35.97 326.07 36.9 326.43 37.8C326.79 38.7 327.24 39.56 327.78 40.36C328.31 41.17 328.93 41.92 329.62 42.6C329.84 42.81 330.06 43 330.3 43.19C330.54 43.38 330.78 43.56 331.03 43.73C331.28 43.9 331.54 44.06 331.81 44.2C332.07 44.35 332.34 44.49 332.62 44.62C333.24 43.84 333.29 42.96 333.29 40.84L333.29 25.16C333.29 24.68 333.29 24.2 333.27 23.72C333.25 23.24 333.22 22.76 333.18 22.28C333.13 21.8 333.08 21.32 333.01 20.84C332.94 20.37 332.86 19.89 332.77 19.42C335.1 18.34 338.67 16.89 341.46 15.85C340.54 15.69 339.62 15.55 338.7 15.42C337.77 15.29 336.85 15.18 335.92 15.08C334.99 14.99 334.06 14.91 333.13 14.85C332.2 14.79 331.27 14.74 330.34 14.71C326.77 14.71 324.24 15.75 322.48 17.51C322.2 17.79 321.94 18.09 321.71 18.41C321.47 18.73 321.26 19.07 321.07 19.42C320.89 19.77 320.72 20.13 320.59 20.5C320.45 20.88 320.34 21.26 320.25 21.65L320.05 21.65C319.9 21.31 319.78 20.98 319.67 20.64C319.56 20.29 319.47 19.94 319.4 19.59C319.33 19.24 319.27 18.89 319.23 18.53C319.19 18.17 319.17 17.81 319.17 17.46C319.15 16.86 319.2 16.26 319.31 15.68C319.41 15.09 319.58 14.52 319.81 13.97C320.04 13.42 320.32 12.89 320.65 12.4C320.99 11.91 321.38 11.45 321.81 11.04C324.24 8.6 327.91 7.26 332.26 7.26C337.79 7.26 345.24 9.07 349.79 9.07C352.58 9.07 354.55 8.4 356.05 6.38L356.41 6.54C354.86 14.14 351.86 16.62 347.93 16.62C347.61 16.62 347.05 16.62 346.01 16.57L346.01 45.18C346.94 44.83 347.84 44.4 348.69 43.89C349.54 43.38 350.34 42.8 351.08 42.14C351.83 41.49 352.51 40.77 353.13 39.99C353.75 39.22 354.29 38.39 354.76 37.51L355.12 37.56C355.1 38.54 354.99 39.51 354.79 40.47C354.59 41.42 354.3 42.36 353.92 43.26C353.55 44.16 353.09 45.03 352.55 45.84C352.01 46.65 351.4 47.42 350.72 48.12C349.85 48.97 348.89 49.74 347.86 50.41C346.84 51.07 345.74 51.63 344.6 52.07C343.46 52.52 342.28 52.84 341.08 53.05C339.87 53.25 338.65 53.34 337.43 53.29C331.37 53.29 326.51 51.28 322.99 47.76C322.19 46.97 321.47 46.11 320.84 45.18C320.21 44.25 319.68 43.26 319.25 42.22C318.83 41.18 318.51 40.1 318.3 39C318.1 37.9 318 36.77 318.03 35.65C318.03 34.68 318.12 33.71 318.3 32.76C318.49 31.81 318.77 30.87 319.14 29.98C319.5 29.08 319.96 28.22 320.49 27.41C321.03 26.6 321.64 25.84 322.32 25.15C322.87 24.6 323.45 24.08 324.05 23.59C324.66 23.11 325.3 22.66 325.96 22.25C326.62 21.84 327.31 21.47 328.01 21.14C328.72 20.82 329.44 20.53 330.18 20.29L330.39 20.55C329.61 21.3 328.91 22.12 328.29 23.01C327.68 23.9 327.16 24.84 326.73 25.84C326.3 26.83 325.98 27.86 325.76 28.92C325.54 29.98 325.43 31.05 325.42 32.14L325.42 32.13ZM239.66 24.58L238.37 24.58L237.85 25.51L239.66 25.51L239.66 24.58ZM253.78 24.58L248.19 24.58L248.19 25.52C248.6 25.5 249.01 25.49 249.41 25.49C249.82 25.49 250.22 25.5 250.63 25.52C251.03 25.53 251.44 25.56 251.84 25.59C252.25 25.63 252.65 25.67 253.06 25.72L253.88 24.64L253.78 24.58ZM425.45 51.69C424.7 51.06 423.97 50.4 423.25 49.74C422.52 49.07 421.82 48.38 421.13 47.68C420.44 46.98 419.76 46.27 419.1 45.54C418.44 44.81 417.8 44.07 417.18 43.31L417.18 29.7C417.18 29.28 417.19 28.86 417.18 28.43C417.18 28.01 417.17 27.59 417.15 27.16C417.13 26.74 417.11 26.32 417.08 25.9C417.05 25.48 417.01 25.05 416.97 24.63L415.88 24.89C415.99 25.77 416.14 28.05 416.14 30.64L416.14 43.73C416.77 44.5 417.41 45.27 418.07 46.01C418.74 46.76 419.41 47.49 420.11 48.21C420.8 48.93 421.52 49.63 422.24 50.31C422.97 51 423.71 51.66 424.47 52.32L425.45 51.69ZM263.59 39.48L263.59 45.85C263.78 46.03 263.97 46.21 264.17 46.39C264.36 46.56 264.56 46.73 264.77 46.89C264.98 47.05 265.19 47.2 265.41 47.35C265.63 47.49 265.85 47.63 266.08 47.76C266.8 47.4 267.68 47.09 268.51 46.73L268.51 35.87C268.12 35.84 267.73 35.8 267.35 35.74C266.96 35.69 266.57 35.63 266.19 35.56C265.81 35.49 265.42 35.42 265.04 35.33C264.66 35.24 264.28 35.15 263.91 35.05C263.83 35.41 263.77 35.78 263.71 36.15C263.66 36.52 263.62 36.89 263.59 37.26C263.55 37.63 263.54 38 263.53 38.38C263.52 38.75 263.53 39.12 263.55 39.5L263.59 39.48ZM147.22 51.49C146.82 51.23 146.43 50.96 146.05 50.68C145.67 50.4 145.3 50.11 144.94 49.81C144.58 49.51 144.22 49.19 143.88 48.87C143.53 48.54 143.2 48.21 142.88 47.87L142.88 26.7C142.7 26.45 142.52 26.21 142.32 25.97C142.12 25.74 141.92 25.51 141.7 25.29C141.48 25.08 141.26 24.87 141.02 24.67C140.79 24.48 140.54 24.29 140.29 24.12L139.36 24.53C139.6 24.69 139.84 24.86 140.07 25.05C140.29 25.23 140.51 25.42 140.72 25.63C140.93 25.83 141.12 26.04 141.31 26.27C141.5 26.49 141.68 26.72 141.84 26.96L141.84 48.22C142.16 48.59 142.5 48.95 142.84 49.3C143.18 49.65 143.53 49.99 143.9 50.32C144.26 50.65 144.63 50.97 145.01 51.27C145.4 51.58 145.79 51.87 146.19 52.16L147.22 51.49L147.22 51.49ZM304.05 51.49C303.65 51.23 303.27 50.96 302.89 50.68C302.51 50.39 302.14 50.1 301.77 49.8C301.41 49.5 301.06 49.18 300.71 48.86C300.37 48.54 300.03 48.21 299.7 47.87L299.7 26.7C299.53 26.45 299.34 26.21 299.15 25.97C298.95 25.74 298.75 25.51 298.53 25.29C298.31 25.08 298.09 24.87 297.85 24.67C297.62 24.48 297.37 24.29 297.12 24.12L296.19 24.53C296.43 24.69 296.67 24.86 296.89 25.05C297.12 25.23 297.34 25.42 297.55 25.63C297.75 25.83 297.95 26.04 298.14 26.27C298.33 26.49 298.5 26.72 298.67 26.96L298.67 48.23C298.99 48.59 299.32 48.96 299.66 49.3C300.01 49.65 300.36 49.99 300.72 50.32C301.09 50.65 301.46 50.97 301.84 51.27C302.22 51.58 302.62 51.87 303.02 52.16L304.05 51.49L304.05 51.49ZM393.84 51.49C393.45 51.23 393.06 50.96 392.68 50.68C392.3 50.39 391.93 50.1 391.57 49.8C391.2 49.5 390.85 49.18 390.5 48.86C390.16 48.54 389.82 48.21 389.5 47.87L389.5 26.7C389.32 26.45 389.14 26.21 388.94 25.97C388.75 25.74 388.54 25.51 388.32 25.29C388.11 25.08 387.88 24.87 387.64 24.67C387.41 24.48 387.16 24.29 386.91 24.12L385.98 24.53C386.22 24.69 386.46 24.86 386.69 25.05C386.91 25.23 387.13 25.42 387.34 25.63C387.55 25.83 387.75 26.04 387.93 26.27C388.12 26.49 388.3 26.72 388.46 26.96L388.46 48.23C388.78 48.59 389.12 48.96 389.46 49.3C389.8 49.65 390.15 49.99 390.52 50.32C390.88 50.65 391.25 50.97 391.64 51.27C392.02 51.58 392.41 51.87 392.81 52.16L393.84 51.49L393.84 51.49ZM407.81 51.48C407.41 51.22 407.02 50.95 406.64 50.66C406.26 50.38 405.88 50.09 405.52 49.78C405.15 49.48 404.79 49.17 404.44 48.85C404.09 48.53 403.74 48.2 403.41 47.86L403.41 26.7C403.23 26.44 403.04 26.2 402.83 25.96C402.63 25.72 402.42 25.49 402.2 25.27C401.98 25.05 401.75 24.84 401.51 24.64C401.27 24.43 401.03 24.24 400.77 24.06L399.84 24.47C400.1 24.63 400.34 24.81 400.58 24.99C400.82 25.18 401.04 25.38 401.26 25.59C401.48 25.8 401.68 26.02 401.88 26.24C402.07 26.47 402.26 26.71 402.43 26.96L402.43 48.23C402.75 48.59 403.08 48.96 403.42 49.3C403.77 49.65 404.12 49.99 404.48 50.32C404.85 50.65 405.22 50.97 405.6 51.27C405.98 51.58 406.37 51.87 406.77 52.16L407.81 51.49L407.81 51.48ZM284.77 46.16L284.87 46.16L285.8 45.43L285.8 26.39C285.63 26.16 285.46 25.94 285.28 25.73C285.1 25.51 284.91 25.3 284.71 25.1C284.52 24.9 284.32 24.7 284.11 24.51C283.9 24.32 283.69 24.14 283.47 23.96L282.59 24.43C282.8 24.59 283.01 24.77 283.2 24.96C283.4 25.14 283.59 25.33 283.77 25.53C283.95 25.73 284.13 25.94 284.29 26.15C284.46 26.36 284.62 26.58 284.77 26.81L284.77 46.21L284.77 46.16ZM359.2 45.85L360.13 45.12L360.13 26.4C359.96 26.17 359.79 25.95 359.61 25.73C359.42 25.52 359.24 25.31 359.04 25.11C358.85 24.9 358.65 24.71 358.44 24.52C358.23 24.32 358.02 24.14 357.8 23.97L356.92 24.43C357.13 24.6 357.33 24.78 357.52 24.97C357.72 25.16 357.9 25.35 358.09 25.55C358.27 25.75 358.44 25.95 358.61 26.16C358.78 26.37 358.94 26.59 359.09 26.81L359.09 45.84L359.2 45.85ZM194.09 45.74C194.28 45.94 194.46 46.13 194.66 46.31C194.86 46.49 195.06 46.67 195.26 46.84C195.47 47.01 195.69 47.17 195.9 47.32C196.12 47.48 196.35 47.62 196.58 47.76C197.51 47.34 198.44 46.93 199.48 46.52L199.48 25.56C199.36 25.46 199.24 25.37 199.12 25.27C199 25.18 198.88 25.09 198.75 25.01C198.63 24.92 198.5 24.84 198.37 24.76C198.24 24.68 198.11 24.6 197.98 24.53L195.96 25.61L195.55 24.94C198.55 22.88 200.67 21.48 203.77 19.67L203.93 19.67C204.45 20.05 204.96 20.44 205.47 20.84C205.97 21.24 206.47 21.65 206.96 22.08C207.44 22.5 207.92 22.93 208.39 23.38C208.86 23.82 209.32 24.27 209.77 24.74L209.77 24.89C209.14 25.31 208.68 25.72 208.06 26.19L208.06 46.05C208.19 46.2 208.33 46.35 208.47 46.49C208.62 46.63 208.77 46.77 208.92 46.9C209.07 47.04 209.22 47.17 209.38 47.29C209.54 47.42 209.7 47.54 209.87 47.65C210.64 47.29 211.37 46.93 212.19 46.57L212.61 47.24C210.07 48.84 207.07 51.02 204.38 52.98L204.23 52.98C203.76 52.61 203.3 52.22 202.87 51.81C202.43 51.41 202.01 50.98 201.61 50.54C201.2 50.1 200.82 49.64 200.45 49.17C200.09 48.69 199.74 48.21 199.42 47.71C196.78 49.31 194.04 51.17 191.56 52.98L191.4 52.98C190.82 52.65 190.26 52.29 189.71 51.9C189.17 51.51 188.65 51.09 188.16 50.64C187.66 50.19 187.19 49.72 186.75 49.22C186.3 48.72 185.89 48.2 185.5 47.65L185.5 26.39C185.33 26.23 185.16 26.08 184.98 25.94C184.81 25.79 184.63 25.65 184.44 25.52C184.25 25.39 184.06 25.26 183.87 25.14C183.68 25.01 183.48 24.9 183.28 24.79C182.71 25.16 182.09 25.46 181.47 25.83L181.05 25.16C184.11 22.98 185.97 21.53 188.97 19.72L189.12 19.72C189.59 20.03 190.05 20.35 190.49 20.68C190.94 21.02 191.37 21.38 191.79 21.75C192.2 22.12 192.6 22.51 192.99 22.92C193.37 23.32 193.74 23.74 194.09 24.17L194.09 45.74ZM374.57 46.15L374.67 46.15L375.6 45.43L375.6 26.39C375.43 26.16 375.26 25.94 375.08 25.73C374.89 25.51 374.71 25.3 374.51 25.1C374.32 24.9 374.12 24.7 373.91 24.51C373.7 24.32 373.49 24.14 373.27 23.96L372.39 24.43C372.6 24.6 372.8 24.77 373 24.96C373.2 25.14 373.39 25.33 373.57 25.53C373.75 25.73 373.92 25.94 374.09 26.15C374.26 26.36 374.41 26.58 374.56 26.81L374.56 46.21L374.57 46.15ZM112.48 45.85L112.58 45.85L113.51 45.12L113.51 26.4C113.34 26.17 113.17 25.95 112.99 25.73C112.81 25.52 112.62 25.31 112.42 25.11C112.23 24.9 112.03 24.71 111.82 24.52C111.61 24.33 111.4 24.14 111.18 23.97L110.3 24.43C110.51 24.6 110.71 24.78 110.9 24.97C111.1 25.16 111.29 25.35 111.47 25.55C111.65 25.75 111.82 25.95 111.99 26.16C112.16 26.37 112.32 26.59 112.47 26.81L112.47 45.84L112.48 45.85ZM127.89 46.16L127.99 46.16L128.92 45.43L128.92 26.39C128.76 26.17 128.58 25.94 128.4 25.73C128.22 25.51 128.03 25.3 127.84 25.1C127.64 24.9 127.44 24.7 127.23 24.51C127.03 24.32 126.81 24.14 126.6 23.96L125.72 24.43C125.93 24.6 126.13 24.77 126.33 24.96C126.52 25.14 126.71 25.33 126.89 25.53C127.07 25.73 127.25 25.94 127.41 26.15C127.58 26.36 127.74 26.58 127.89 26.81L127.89 46.21L127.89 46.16ZM200.14 25.26L200.14 47.35C200.4 47.81 200.68 48.27 200.99 48.7C201.29 49.14 201.62 49.56 201.96 49.97C202.31 50.37 202.68 50.76 203.07 51.12C203.45 51.49 203.86 51.83 204.28 52.16L205.32 51.49C204.91 51.18 204.52 50.86 204.14 50.53C203.76 50.19 203.4 49.84 203.06 49.47C202.71 49.1 202.38 48.72 202.07 48.32C201.75 47.92 201.46 47.51 201.18 47.09L201.18 25C201.06 24.88 200.94 24.76 200.81 24.65C200.68 24.53 200.55 24.43 200.42 24.32C200.29 24.22 200.15 24.12 200.01 24.02C199.87 23.93 199.73 23.84 199.58 23.75L198.7 24.22C198.83 24.29 198.97 24.37 199.1 24.45C199.23 24.52 199.35 24.61 199.48 24.69C199.6 24.78 199.73 24.87 199.85 24.96C199.97 25.06 200.08 25.15 200.2 25.25L200.14 25.26ZM175.84 51.48C175.43 51.15 175.04 50.81 174.66 50.45C174.28 50.09 173.92 49.72 173.57 49.34C173.22 48.95 172.88 48.56 172.56 48.15C172.24 47.74 171.94 47.31 171.65 46.88L171.65 24.84L157.58 16.57L157.53 16.57L157.79 18.07C158.82 18.53 160.01 19.2 170.67 25.26L170.67 47.35C170.95 47.8 171.24 48.24 171.55 48.67C171.87 49.1 172.2 49.52 172.54 49.92C172.89 50.32 173.25 50.71 173.63 51.08C174.01 51.46 174.4 51.82 174.81 52.16L175.84 51.49L175.84 51.48ZM457.07 26.54C456.93 26.6 456.79 26.65 456.65 26.69C456.5 26.73 456.36 26.77 456.21 26.8C456.06 26.83 455.91 26.85 455.76 26.87C455.62 26.89 455.47 26.9 455.32 26.9C454.5 26.9 453.69 26.8 452.89 26.62C452.1 26.43 451.33 26.16 450.59 25.81C449.86 25.46 449.16 25.03 448.52 24.52C447.88 24.02 447.3 23.45 446.78 22.82L446.63 22.82L446.63 23.85C447.14 24.47 447.71 25.02 448.34 25.51C448.97 25.99 449.66 26.41 450.38 26.75C451.1 27.09 451.86 27.35 452.63 27.52C453.41 27.7 454.21 27.78 455.01 27.79C455.12 27.79 455.23 27.79 455.35 27.78C455.46 27.77 455.57 27.76 455.68 27.74C455.8 27.72 455.91 27.7 456.02 27.67C456.13 27.65 456.24 27.61 456.35 27.58L457.07 26.65L457.07 26.54ZM232.07 26.54C231.93 26.6 231.79 26.65 231.65 26.69C231.5 26.73 231.36 26.77 231.21 26.8C231.06 26.83 230.91 26.85 230.76 26.87C230.62 26.89 230.47 26.9 230.32 26.9C229.5 26.9 228.69 26.8 227.89 26.62C227.1 26.43 226.33 26.16 225.59 25.81C224.86 25.46 224.16 25.03 223.52 24.52C222.88 24.02 222.3 23.45 221.78 22.82L221.63 22.82L221.63 23.85C222.14 24.47 222.71 25.02 223.34 25.51C223.97 25.99 224.66 26.41 225.38 26.75C226.1 27.09 226.86 27.35 227.63 27.52C228.41 27.7 229.21 27.78 230.01 27.79C230.12 27.79 230.23 27.79 230.35 27.78C230.46 27.77 230.57 27.76 230.68 27.74C230.8 27.72 230.91 27.7 231.02 27.67C231.13 27.65 231.24 27.61 231.35 27.58L232.07 26.65L232.07 26.54ZM430.38 33.38C429.75 32.53 429.14 31.67 428.56 30.79C427.97 29.9 427.42 29.01 426.88 28.1C426.34 27.18 425.83 26.26 425.35 25.32C424.86 24.38 424.4 23.43 423.96 22.47L423.81 22.52L423.81 24.12C424.21 24.96 424.63 25.8 425.07 26.63C425.51 27.45 425.96 28.27 426.44 29.08C426.91 29.89 427.41 30.68 427.92 31.47C428.43 32.25 428.95 33.03 429.5 33.79L430.38 33.38ZM373.05 47.87C373.42 48.28 373.79 48.68 374.19 49.06C374.58 49.45 374.98 49.82 375.39 50.18C375.81 50.54 376.24 50.88 376.67 51.21C377.11 51.55 377.56 51.86 378.02 52.16L379.05 51.49C378.59 51.19 378.13 50.88 377.68 50.55C377.24 50.22 376.8 49.87 376.38 49.51C375.96 49.15 375.54 48.78 375.14 48.39C374.74 48.01 374.36 47.61 373.98 47.2L373.05 47.87ZM110.96 47.57C111.35 48.01 111.76 48.45 112.19 48.87C112.61 49.28 113.05 49.69 113.5 50.07C113.96 50.45 114.43 50.82 114.91 51.17C115.39 51.52 115.89 51.85 116.39 52.17L117.43 51.5C116.91 51.19 116.4 50.86 115.91 50.51C115.42 50.17 114.94 49.8 114.48 49.41C114.01 49.03 113.57 48.63 113.13 48.2C112.7 47.78 112.29 47.34 111.89 46.89L110.96 47.57ZM283.31 47.87C283.67 48.28 284.05 48.68 284.44 49.06C284.83 49.45 285.24 49.82 285.65 50.18C286.07 50.54 286.49 50.88 286.93 51.21C287.37 51.55 287.82 51.86 288.28 52.16L289.31 51.49C288.84 51.19 288.39 50.88 287.94 50.55C287.49 50.22 287.06 49.87 286.64 49.51C286.21 49.15 285.8 48.78 285.4 48.4C285 48.01 284.61 47.61 284.24 47.2L283.31 47.87ZM187.21 46.99L187.21 25.77C187.02 25.6 186.84 25.43 186.64 25.27C186.45 25.11 186.25 24.95 186.05 24.8C185.84 24.65 185.64 24.5 185.43 24.36C185.21 24.23 185 24.09 184.78 23.97L183.9 24.43C184.11 24.54 184.32 24.65 184.52 24.77C184.73 24.89 184.93 25.01 185.12 25.15C185.32 25.28 185.51 25.42 185.69 25.57C185.88 25.72 186.05 25.87 186.23 26.03L186.23 47.29C186.57 47.78 186.94 48.26 187.34 48.71C187.73 49.16 188.15 49.59 188.6 49.99C189.04 50.4 189.5 50.78 189.99 51.13C190.48 51.48 190.98 51.8 191.5 52.1L192.54 51.43C192.02 51.17 191.52 50.88 191.03 50.56C190.55 50.24 190.08 49.89 189.64 49.51C189.2 49.14 188.78 48.74 188.38 48.32C187.98 47.89 187.61 47.45 187.26 46.98L187.21 46.99ZM357.64 47.57C358.03 48.01 358.44 48.45 358.86 48.87C359.29 49.28 359.73 49.69 360.18 50.07C360.64 50.45 361.11 50.82 361.59 51.17C362.07 51.52 362.56 51.85 363.07 52.17L364.1 51.5C363.58 51.19 363.07 50.87 362.58 50.52C362.09 50.18 361.61 49.81 361.14 49.42C360.68 49.04 360.23 48.63 359.8 48.21C359.37 47.79 358.96 47.35 358.57 46.89L357.64 47.57ZM126.43 47.87C126.8 48.28 127.18 48.68 127.57 49.06C127.96 49.45 128.36 49.82 128.78 50.18C129.19 50.54 129.62 50.88 130.05 51.21C130.49 51.55 130.94 51.86 131.4 52.16L132.43 51.49C131.97 51.19 131.51 50.88 131.06 50.55C130.62 50.22 130.18 49.87 129.76 49.51C129.34 49.15 128.92 48.78 128.52 48.4C128.13 48.01 127.74 47.61 127.37 47.2L126.43 47.87ZM423.8 36.84L428.97 34.05C428.48 33.39 428.02 32.73 427.56 32.05C427.11 31.37 426.68 30.68 426.26 29.98C425.84 29.28 425.44 28.57 425.05 27.85C424.67 27.13 424.3 26.41 423.95 25.67L423.79 25.72L423.8 36.84ZM261.89 51.44C261.43 51.19 260.97 50.92 260.53 50.63C260.09 50.34 259.67 50.03 259.26 49.69C258.85 49.36 258.46 49 258.09 48.63C257.72 48.25 257.36 47.86 257.03 47.45L257.03 42.23C257.03 40.63 256.93 39.03 256.88 37.78L255.79 38.2C255.83 38.57 255.86 38.95 255.89 39.33C255.92 39.71 255.94 40.09 255.96 40.47C255.98 40.85 255.99 41.23 255.99 41.61C256 41.99 256 42.37 256 42.75L256 47.82C256.33 48.26 256.68 48.68 257.05 49.08C257.42 49.48 257.81 49.87 258.22 50.23C258.62 50.6 259.05 50.94 259.49 51.26C259.93 51.59 260.39 51.89 260.86 52.17L261.89 51.44ZM438.39 50.61C438.39 50.61 438.39 50.61 438.39 50.61C438.39 50.61 438.39 50.61 438.38 50.61L438.39 50.61ZM438.39 50.61C438.54 50.55 438.69 50.5 438.85 50.45C439 50.41 439.16 50.37 439.32 50.34C439.48 50.31 439.65 50.29 439.81 50.27C439.97 50.26 440.14 50.25 440.3 50.25C442.22 50.25 445.06 50.72 446.82 52.42L447.64 51.91C447.17 51.48 446.65 51.11 446.1 50.78C445.55 50.46 444.97 50.19 444.37 49.98C443.77 49.77 443.15 49.61 442.52 49.52C441.89 49.43 441.25 49.39 440.61 49.42C440.46 49.42 440.3 49.42 440.15 49.43C440 49.44 439.85 49.45 439.69 49.48C439.54 49.5 439.39 49.53 439.24 49.56C439.1 49.59 438.95 49.63 438.8 49.68C438.75 49.75 438.7 49.82 438.65 49.89C438.61 49.96 438.57 50.04 438.53 50.12C438.5 50.2 438.47 50.28 438.44 50.36C438.42 50.44 438.4 50.53 438.39 50.61ZM213.75 50.61C213.9 50.55 214.05 50.5 214.21 50.46C214.37 50.41 214.53 50.37 214.69 50.34C214.85 50.31 215.01 50.29 215.17 50.27C215.33 50.26 215.5 50.25 215.66 50.25C216.21 50.25 216.76 50.29 217.31 50.38C217.85 50.47 218.38 50.61 218.9 50.8C219.42 50.98 219.92 51.21 220.4 51.49C220.88 51.76 221.34 52.07 221.76 52.43L222.59 51.91C222.14 51.5 221.66 51.13 221.14 50.82C220.63 50.5 220.09 50.23 219.52 50.02C218.95 49.81 218.37 49.65 217.77 49.55C217.18 49.45 216.57 49.41 215.97 49.42C215.81 49.42 215.66 49.42 215.51 49.43C215.36 49.44 215.2 49.45 215.05 49.48C214.9 49.5 214.75 49.53 214.6 49.56C214.45 49.59 214.3 49.63 214.16 49.68C214.1 49.75 214.05 49.82 214.01 49.89C213.96 49.96 213.92 50.04 213.89 50.12C213.85 50.2 213.82 50.28 213.8 50.36C213.78 50.44 213.76 50.53 213.74 50.61L213.75 50.61ZM333.64 44.5C334.78 43.36 335.04 42.64 335.09 39.12L335.09 24.43C335.09 24 335.08 23.58 335.07 23.15C335.05 22.73 335.02 22.3 334.99 21.88C334.96 21.46 334.91 21.04 334.86 20.61C334.81 20.19 334.75 19.77 334.68 19.36L333.59 19.82C333.67 20.24 333.74 20.66 333.79 21.08C333.85 21.5 333.9 21.92 333.94 22.34C333.98 22.77 334.01 23.19 334.03 23.62C334.05 24.04 334.06 24.47 334.06 24.89L334.06 39.89C334.06 42.63 334 43.36 333.59 44.44L333.64 44.49L333.64 44.5ZM164.71 45.68C164.89 45.88 165.08 46.07 165.28 46.25C165.47 46.43 165.67 46.61 165.88 46.78C166.09 46.95 166.3 47.11 166.52 47.26C166.74 47.42 166.96 47.56 167.19 47.7C168.07 47.29 169.06 46.92 169.99 46.56L169.99 25.61C168.18 24.52 166.68 23.64 165.39 22.92C164.87 24.48 164.72 26.18 164.72 30.58L164.71 45.68ZM341.51 36.58C341.51 37.01 341.52 37.43 341.54 37.85C341.55 38.28 341.58 38.7 341.61 39.12C341.64 39.55 341.67 39.97 341.72 40.39C341.76 40.81 341.81 41.23 341.87 41.65C339.55 42.79 336.55 44.08 333.65 45.22C334.16 45.41 334.68 45.57 335.21 45.7C335.74 45.84 336.27 45.96 336.81 46.05C337.35 46.14 337.89 46.21 338.43 46.25C338.97 46.29 339.52 46.31 340.06 46.31C340.45 46.31 340.83 46.3 341.22 46.27C341.6 46.25 341.98 46.21 342.36 46.16C342.74 46.1 343.12 46.04 343.5 45.96C343.87 45.88 344.25 45.79 344.62 45.69L344.62 16.46C344.05 16.41 343.06 16.25 342.6 16.2C341.56 17.24 341.51 18.06 341.51 20.49L341.51 36.58ZM240.34 45.28L240.45 45.28L241.38 44.55L241.38 15.94L241.33 15.94L240.08 16.82C240.18 18.06 240.34 20.39 240.34 23.23L240.34 45.28ZM79.22 14.75C75.55 18.94 75.03 19.82 75.03 24.64L75.03 37.73C75.03 43.73 74.92 46.11 71.61 50.45L71.66 50.5C75.75 45.75 76.01 43.36 76.01 37.41L76.01 24.38C76.01 19.57 76.47 18.69 79.26 14.75L79.22 14.75ZM101.4 51.49L101.4 51.49C101.4 51.49 101.4 51.49 101.4 51.49L101.4 51.49ZM101.4 51.49C100.95 51.22 100.52 50.93 100.1 50.63C99.67 50.32 99.26 50 98.86 49.66C98.46 49.32 98.08 48.97 97.71 48.6C97.34 48.23 96.99 47.85 96.65 47.45L96.65 19.82C96.66 19.29 96.66 18.76 96.66 18.24C96.65 17.71 96.64 17.18 96.62 16.66C96.6 16.13 96.57 15.61 96.53 15.08C96.49 14.55 96.44 14.03 96.39 13.51L95.14 14.39C95.23 14.87 95.31 15.36 95.37 15.85C95.44 16.34 95.49 16.83 95.53 17.32C95.57 17.82 95.59 18.31 95.61 18.8C95.62 19.3 95.62 19.79 95.61 20.29L95.61 47.86C95.95 48.28 96.3 48.68 96.67 49.07C97.04 49.46 97.42 49.83 97.82 50.19C98.22 50.55 98.63 50.9 99.06 51.22C99.48 51.55 99.92 51.86 100.37 52.16L101.4 51.49ZM79.73 12.17C79.48 12.28 79.22 12.39 78.96 12.48C78.7 12.57 78.43 12.64 78.17 12.7C77.9 12.76 77.62 12.81 77.35 12.84C77.07 12.87 76.8 12.89 76.52 12.89C74.97 12.89 73.52 12.17 72.07 12.17C71.76 12.15 71.45 12.17 71.14 12.22C70.84 12.27 70.54 12.34 70.24 12.45C69.95 12.56 69.67 12.69 69.41 12.85C69.14 13.01 68.89 13.2 68.66 13.41C68.53 13.54 68.41 13.68 68.3 13.83C68.19 13.98 68.09 14.13 68.01 14.29C67.92 14.46 67.84 14.62 67.78 14.8C67.72 14.97 67.66 15.15 67.63 15.33L67.68 15.33C67.73 15.22 67.78 15.12 67.84 15.03C67.91 14.93 67.97 14.84 68.04 14.74C68.11 14.65 68.18 14.56 68.26 14.48C68.34 14.4 68.42 14.32 68.5 14.24C68.72 14.03 68.96 13.85 69.21 13.69C69.46 13.53 69.73 13.4 70.01 13.29C70.28 13.18 70.57 13.1 70.87 13.05C71.16 13.01 71.46 12.98 71.76 12.99C73.1 12.99 74.4 13.72 75.9 13.72C76.25 13.7 76.6 13.65 76.94 13.58C77.29 13.5 77.63 13.4 77.95 13.28C78.28 13.15 78.6 13 78.91 12.82C79.21 12.64 79.5 12.44 79.78 12.22L79.73 12.17L79.73 12.17ZM114.43 17.5C113.99 17.09 113.55 16.68 113.13 16.25C112.71 15.83 112.3 15.39 111.9 14.95C111.49 14.5 111.1 14.05 110.72 13.58C110.34 13.12 109.98 12.65 109.62 12.17L109.62 12.01C111.84 10.15 113.97 8.7 115.98 7.25L116.14 7.25C116.56 7.68 116.97 8.12 117.38 8.56C117.79 9 118.19 9.45 118.59 9.9C118.99 10.36 119.38 10.82 119.76 11.28C120.15 11.74 120.52 12.21 120.9 12.69L120.9 12.84C118.72 14.6 117.07 15.79 114.59 17.5L114.43 17.5L114.43 17.5ZM361.72 17.49C361.28 17.09 360.85 16.67 360.43 16.24C360.01 15.82 359.6 15.38 359.2 14.94C358.8 14.49 358.41 14.04 358.03 13.58C357.65 13.11 357.27 12.64 356.91 12.17L356.91 12.01C359.14 10.15 361.26 8.7 363.28 7.25L363.43 7.25C363.85 7.68 364.27 8.12 364.68 8.56C365.08 9 365.49 9.45 365.88 9.9C366.28 10.36 366.67 10.81 367.06 11.28C367.44 11.74 367.82 12.21 368.19 12.68L368.19 12.84C366.02 14.6 364.36 15.79 361.88 17.5L361.72 17.5L361.72 17.49ZM320.24 20.08C320.24 20.07 320.25 20.05 320.25 20.03L320.24 20.03L320.24 20.08ZM320.25 20.03L320.29 20.03C320.39 19.74 320.51 19.46 320.65 19.19C320.79 18.92 320.94 18.65 321.1 18.39C321.27 18.14 321.45 17.89 321.64 17.65C321.83 17.42 322.04 17.19 322.26 16.98C324.12 15.12 326.76 14.19 330.48 14.19C336.48 14.19 343.42 15.99 348.02 15.99C350.65 15.99 352.67 14.81 354.38 11.34L354.22 11.29C352.62 14.13 350.65 15.17 348.28 15.17C343.67 15.17 336.64 13.36 330.74 13.36C326.96 13.36 324.12 14.29 322.21 16.2C321.95 16.47 321.72 16.76 321.51 17.06C321.3 17.36 321.11 17.68 320.95 18C320.78 18.33 320.64 18.67 320.52 19.02C320.41 19.35 320.32 19.69 320.25 20.03ZM238.83 46.89C239.36 47.43 239.91 47.94 240.48 48.44C241.04 48.94 241.62 49.42 242.22 49.89C242.82 50.35 243.43 50.79 244.05 51.22C244.68 51.64 245.31 52.04 245.97 52.43L247 51.7C246.34 51.32 245.7 50.92 245.06 50.5C244.43 50.09 243.81 49.65 243.21 49.19C242.6 48.73 242.01 48.25 241.44 47.76C240.86 47.26 240.3 46.75 239.76 46.22L238.83 46.89ZM163.15 51.49C162.63 51.21 162.13 50.91 161.65 50.58C161.16 50.25 160.7 49.9 160.25 49.52C159.8 49.14 159.38 48.74 158.97 48.32C158.57 47.89 158.18 47.45 157.82 46.99L157.82 25.83L156.68 26.29C156.79 27.53 156.84 29.04 156.84 32.55L156.84 47.35C157.2 47.83 157.57 48.3 157.98 48.74C158.38 49.19 158.8 49.61 159.24 50.02C159.68 50.42 160.15 50.8 160.63 51.16C161.11 51.52 161.6 51.85 162.11 52.16L163.15 51.49L163.15 51.49ZM110.55 12.06C110.85 12.47 111.16 12.87 111.47 13.26C111.79 13.66 112.11 14.04 112.45 14.42C112.78 14.8 113.12 15.18 113.47 15.54C113.82 15.91 114.17 16.26 114.54 16.61L115.36 16.1C115 15.74 114.64 15.38 114.28 15.01C113.93 14.64 113.58 14.27 113.24 13.89C112.9 13.51 112.57 13.12 112.24 12.73C111.91 12.34 111.59 11.95 111.28 11.55L110.55 12.06ZM357.9 12.01C358.21 12.42 358.53 12.82 358.86 13.22C359.18 13.62 359.52 14.01 359.86 14.39C360.2 14.77 360.55 15.15 360.9 15.52C361.26 15.89 361.62 16.26 361.99 16.61L362.81 16.1C362.45 15.73 362.09 15.36 361.73 14.99C361.37 14.62 361.02 14.24 360.68 13.85C360.33 13.47 359.99 13.08 359.66 12.69C359.33 12.3 359 11.9 358.68 11.5L357.9 12.01ZM81.69 51.38L81.69 51.38C81.69 51.39 81.69 51.39 81.7 51.39L81.69 51.38ZM81.69 51.38C81.36 51.16 81.01 50.96 80.65 50.78C80.29 50.61 79.91 50.47 79.53 50.36C79.14 50.25 78.75 50.17 78.35 50.13C77.95 50.08 77.54 50.07 77.14 50.1C76.59 50.09 76.04 50.12 75.49 50.19C74.95 50.27 74.41 50.38 73.88 50.53C73.35 50.69 72.83 50.88 72.33 51.11C71.83 51.34 71.35 51.6 70.89 51.9L70.89 51.95C71.3 51.75 71.72 51.57 72.15 51.42C72.59 51.26 73.03 51.13 73.48 51.03C73.92 50.92 74.38 50.84 74.83 50.79C75.29 50.74 75.75 50.71 76.21 50.71C76.62 50.7 77.02 50.71 77.43 50.76C77.83 50.81 78.23 50.9 78.62 51.01C79.01 51.12 79.39 51.27 79.76 51.44C80.12 51.62 80.48 51.82 80.81 52.05L81.69 51.38ZM351.02 47.09C350.13 47.86 349.17 48.56 348.15 49.16C347.13 49.76 346.06 50.26 344.95 50.66C343.83 51.05 342.69 51.34 341.52 51.53C340.35 51.71 339.17 51.78 337.99 51.74C332.3 51.74 327.85 49.98 324.64 46.77C323.86 46.01 323.17 45.16 322.56 44.25C321.95 43.35 321.43 42.38 321.01 41.37C320.6 40.36 320.28 39.31 320.07 38.24C319.86 37.16 319.76 36.07 319.77 34.98C319.75 34.09 319.82 33.21 319.96 32.33C320.11 31.45 320.33 30.59 320.64 29.76C320.94 28.92 321.32 28.12 321.78 27.36C322.23 26.59 322.75 25.87 323.34 25.2L323.29 25.15C322.58 25.81 321.93 26.53 321.37 27.32C320.81 28.1 320.33 28.94 319.94 29.83C319.54 30.71 319.25 31.63 319.04 32.58C318.84 33.52 318.74 34.49 318.74 35.45C318.72 36.56 318.81 37.67 319.01 38.76C319.22 39.85 319.53 40.92 319.95 41.95C320.36 42.98 320.88 43.96 321.5 44.88C322.11 45.81 322.81 46.67 323.6 47.45C327.07 50.81 331.72 52.73 337.62 52.73C338.86 52.75 340.11 52.64 341.33 52.4C342.56 52.16 343.76 51.8 344.91 51.31C346.06 50.83 347.15 50.23 348.18 49.52C349.21 48.81 350.16 47.99 351.02 47.09L351.02 47.09Z" />
	</g>
</svg>